<svg width="273" height="170" version="1.1" xmlns="http://www.w3.org/2000/svg" desc="Created with imagetracer.js version 1.2.6" ><path fill="rgb(58,58,58)" stroke="rgb(58,58,58)" stroke-width="1" opacity="1" d="M 136.5 13 L 138.5 16 L 140.5 15 L 140 16.5 L 141 19.5 L 139 20 Q 140.5 23.7 137.5 23 L 135.5 22 L 134 22.5 Q 135.3 18.8 131.5 20 L 131.5 19 Q 134.1 19.8 133 16.5 L 132.5 15 L 134.5 16 L 136.5 13 Z " /><path fill="rgb(58,58,58)" stroke="rgb(58,58,58)" stroke-width="1" opacity="1" d="M 117 20 L 120.5 22 L 123 20.5 L 125 26 Q 127.7 24.9 127 27.5 L 123 29 L 124.5 33 L 130.5 32 L 131.5 33 L 150 33 L 153 26 L 150 25.5 Q 150.5 22.5 154.5 23 Q 157 24 156 28.5 L 153 37.5 L 155.5 39 Q 157.3 36.2 163.5 38 L 168.5 41 L 169.5 37 L 171 41.5 L 171 43.5 L 173.5 48 L 175 45 L 173 44.5 L 176.5 44 L 176 45.5 Q 173.2 47.5 174 52 L 167.5 52 L 167 53.5 L 166.5 55 L 175.5 56 L 178.5 54 L 176 57.5 L 176.5 60 L 177 58 Q 179.7 59.1 179 56.5 L 183 53.5 Q 182.3 55.8 184.5 55 L 184.5 56 L 182.5 55 L 181.5 57 L 183.5 58 L 185 57.5 L 187 60.5 L 185 61.5 L 187 62.5 L 185.5 63 L 183.5 63 L 181 61.5 L 182 58.5 Q 180 55 178 59.5 L 177.5 62 L 175 61 L 173.5 57 L 170 57.5 L 173 58.5 L 168 59 Q 169 56 166 57 L 166 65 L 171.5 65 L 174 63.5 L 171 61.5 L 171.5 60 L 174 61 L 175.5 64 L 190.5 64 L 191 60 Q 188.3 58.9 189 61.5 L 188 61.5 Q 186.7 57.3 191.5 59 L 193 62.5 L 188.5 66 L 145 66.5 Q 154.7 66.3 160.5 70 L 161 68 L 159 67.5 L 162.5 67 L 162 68.5 L 163.5 71 L 167.5 73 L 168.5 71 L 169.5 74 L 171.5 71 L 175 71.5 L 172 73.5 Q 171.1 76.5 175.5 75 L 180 71.5 L 181 74.5 L 179.5 77 L 181 77.5 L 179 78.5 L 179.5 80 L 177 78.5 L 175.5 76 L 171.5 75 L 169 80.5 L 170 80.5 L 170.5 79 Q 173.5 79.5 173 83.5 L 170.5 84 L 163 81.5 L 168 81 Q 168.7 74.5 164.5 72 L 162 72.5 L 163 75.5 L 162 75.5 L 158.5 70 L 151.5 68 L 152 69.5 L 153 75.5 L 154.5 77 L 158.5 74 L 161 75 L 162 77.5 L 158.5 87 L 149.5 87 L 142.5 85 L 143 86.5 L 142 89.5 L 150 93 L 149.5 95 L 142 92 L 143 95.5 L 140.5 94 L 139.5 95 L 134 95 L 134 92.5 L 132 93.5 L 130.5 96 L 130 93.5 L 130.5 92 L 123.5 94 L 122.5 92 L 131 89.5 L 130 86.5 L 130.5 85 L 115.5 88 L 113 84 L 109 84.5 L 111 88.5 L 109 89 L 108 84.5 L 108.5 82 L 112.5 83 L 113 80.5 L 111 72.5 L 112 72.5 L 112.5 76 L 116.5 75 L 118.5 78 L 119.5 71 L 120 76 Q 122.9 78.9 130.5 78 L 136 77 L 133.5 72 Q 131.8 74.8 126.5 74 L 125 70.5 L 126.5 68 L 123 69.5 L 122.5 75 L 121 71.5 L 122 69.5 L 120 69.5 L 120.5 68 L 117.5 68 L 107 73.5 L 106 77.5 L 111 79.5 L 108.5 81 L 106 79.5 L 105.5 81 L 105 75.5 L 105.5 74 Q 103.3 73.3 104 75.5 L 100.5 75 L 99 74.5 L 102 74 L 102.5 69 L 105 70.5 L 103 71 L 103.5 73 L 106.5 72 Q 109.1 72.7 108 70 L 106 69.5 L 109.5 69 L 111.5 70 L 111.5 67 L 109.5 66 L 82.5 66 L 80 63.5 Q 79.3 59.8 81.5 59 L 85 60.5 L 84.5 62 Q 82.8 58.3 81 61.5 L 83.5 65 L 86 64.5 L 85.5 63 Q 90.3 63.8 91 60.5 L 87 59.5 L 88 57 L 90 56.5 L 87.5 56 L 86 56.5 L 90 55 L 90.5 52 L 93 57.5 L 92 57.5 L 91.5 56 L 91 60 L 93 60.5 L 91.5 63 L 95 62.5 L 94 59.5 Q 93.3 56.9 96 58 L 96 56 L 94 55.5 L 98 55 L 98.5 57 Q 100.8 54 106 55 Q 107.3 50.4 104.5 49 L 102.5 48 L 102 50 Q 105 49 104 52 L 101 51.5 L 102 50.5 L 100 46.5 L 99 43.5 L 103 43 L 102 46.5 L 105.5 49 Q 106.9 42.4 111.5 39 Q 113.8 39.8 113 37.5 Q 118.6 33.6 119 24.5 Q 116.3 23.4 117 20 Z M 127 34 L 127 35 L 136 35 L 127 34 Z M 138 34 L 138 35 L 141 35 L 138 34 Z M 143 34 L 143 35 L 146 35 L 143 34 Z M 126 35 L 125 42 L 126 42 L 126 35 Z M 127 36 Q 125 41 129 40 Q 131 35 127 36 Z M 131 36 L 131 39 L 133 40 Q 134 35 131 36 Z M 134 36 L 134 42 L 136 43 L 134 43 L 135 46 L 135 44 L 139 46 L 139 36 L 134 36 Z M 140 36 L 141 39 L 141 37 L 145 37 L 140 36 Z M 147 36 L 146 41 L 147 41 L 147 36 Z M 121 43 L 119 54 L 119 55 L 121 54 L 123 55 L 122 57 L 129 61 L 130 58 L 127 56 Q 124 57 125 55 L 122 54 Q 121 49 124 50 L 124 43 L 121 43 Z M 127 43 Q 126 47 129 46 Q 130 42 127 43 Z M 131 43 Q 130 47 133 46 Q 134 42 131 43 Z M 141 43 L 140 46 L 141 46 L 141 43 Z M 147 43 L 146 48 L 147 48 L 147 43 Z M 150 46 L 148 55 L 145 57 L 143 61 L 150 58 L 151 56 L 153 56 L 154 56 L 151 54 L 149 55 L 152 53 L 153 50 L 153 54 L 157 55 Q 159 54 158 50 L 155 50 L 150 46 Z M 126 47 L 125 54 L 127 54 L 126 47 Z M 129 47 L 130 49 L 133 48 L 129 47 Z M 134 47 L 134 51 L 136 51 L 137 52 Q 136 48 139 49 L 139 47 L 134 47 Z M 140 47 L 140 49 L 143 48 L 145 49 L 145 47 L 140 47 Z M 147 50 L 146 54 L 147 54 L 147 50 Z M 161 51 Q 160 54 163 53 Q 164 50 161 51 Z M 133 52 L 132 54 L 129 55 L 133 56 L 133 52 Z M 140 54 L 140 56 L 144 55 L 140 54 Z M 114 55 L 107 65 L 113 65 L 114 59 L 114 55 Z M 134 55 L 134 58 L 137 59 L 139 58 L 139 55 L 134 55 Z M 103 56 L 98 58 L 98 60 L 96 61 L 96 62 L 100 61 L 101 58 L 105 57 L 103 56 Z M 119 56 L 117 58 Q 116 62 119 63 L 127 62 L 124 59 L 120 60 L 120 59 L 119 56 Z M 156 56 L 148 60 L 154 61 L 156 58 L 156 56 Z M 159 56 L 158 58 L 162 57 L 163 58 L 161 59 L 158 58 L 155 64 L 164 62 L 164 56 L 161 56 L 159 56 Z M 141 57 L 139 59 L 141 59 L 141 57 Z M 133 58 L 136 61 L 136 59 L 133 58 Z M 137 59 L 137 61 L 139 60 L 137 59 Z M 131 60 L 131 64 L 133 65 Q 135 59 131 60 Z M 141 60 L 140 65 L 141 65 L 141 60 Z M 183 60 L 183 61 L 185 61 L 183 60 Z M 146 61 L 140 68 L 141 70 L 141 69 L 145 65 L 152 63 Q 150 60 146 61 Z M 135 62 L 135 68 Q 137 71 138 68 Q 140 60 135 62 Z M 116 66 L 116 67 L 128 67 L 116 66 Z M 133 67 L 132 70 L 134 71 L 133 67 Z M 130 69 L 129 71 L 128 70 Q 125 72 128 73 L 131 72 L 130 69 Z M 143 69 Q 141 75 147 73 Q 150 72 147 70 L 145 71 L 145 70 L 143 69 Z M 151 69 L 149 72 L 151 71 L 151 69 Z M 152 71 L 151 75 L 149 73 L 146 75 L 141 72 L 137 77 L 139 78 Q 145 76 147 79 L 152 77 L 152 71 Z M 121 78 L 121 79 L 124 79 L 121 78 Z M 152 78 L 154 80 Q 155 77 152 78 Z M 125 79 L 125 82 L 124 80 L 116 81 L 114 81 Q 112 88 117 86 L 118 83 L 121 84 L 121 81 Q 124 80 123 84 L 127 85 L 127 83 L 126 81 L 129 80 L 125 79 Z M 135 79 L 132 81 L 133 83 Q 130 84 131 80 Q 128 79 129 82 L 130 84 L 142 84 Q 141 81 140 83 L 137 82 L 135 83 L 135 82 L 135 79 Z M 139 79 L 139 82 L 141 81 Q 142 78 139 79 Z M 143 79 L 143 83 L 145 82 Q 146 78 143 79 Z M 148 80 L 146 82 Q 147 85 145 84 L 145 85 L 148 84 Q 150 85 149 81 L 151 81 L 148 80 Z M 151 81 L 149 86 L 151 86 L 153 82 L 151 81 Z M 154 81 L 155 86 L 159 85 L 159 81 L 154 81 Z M 122 84 Q 120 87 123 86 L 122 84 Z M 132 86 Q 131 89 134 88 Q 135 85 132 86 Z M 139 86 Q 138 89 141 88 Q 142 85 139 86 Z M 136 90 L 135 93 L 138 93 Q 139 89 136 90 Z " /><path fill="rgb(58,58,58)" stroke="rgb(58,58,58)" stroke-width="1" opacity="1" d="M 130.5 25 L 141.5 25 L 142 27 L 131.5 27 L 130.5 25 Z " /><path fill="rgb(58,58,58)" stroke="rgb(58,58,58)" stroke-width="1" opacity="1" d="M 94.5 33 L 97 37.5 L 94 38.5 L 97.5 40 L 98.5 38 L 99 41.5 L 97.5 44 L 97 40 Q 94.3 38.9 95 41.5 L 95.5 43 Q 92.9 42.3 94 45 L 99 45.5 L 96 47.5 L 95.5 49 L 94.5 47 L 92.5 47 Q 88.8 48.3 90 44.5 L 90.5 42 L 93 41.5 L 92 38 L 94 38 L 94.5 33 Z " /><path fill="rgb(58,58,58)" stroke="rgb(58,58,58)" stroke-width="1" opacity="1" d="M 177.5 33 Q 179.8 32.3 179 34.5 L 181 34.5 L 180 38.5 L 181 41.5 L 180 44.5 L 182.5 46 L 184 45.5 L 183 48 L 178.5 49 L 177.5 47 L 180 45.5 L 178 44.5 L 179 42.5 L 177 42.5 L 179 39.5 Q 175.5 38 178 36.5 L 177.5 33 Z M 180 36 L 178 38 L 180 38 L 180 36 Z M 181 46 L 179 48 L 181 48 L 181 46 Z " /><path fill="rgb(58,58,58)" stroke="rgb(58,58,58)" stroke-width="1" opacity="1" d="M 135 37 Q 138 36 137 39 Q 134 40 135 37 Z " /><path fill="rgb(58,58,58)" stroke="rgb(58,58,58)" stroke-width="1" opacity="1" d="M 174.5 38 L 176 41.5 L 173.5 43 L 174 41.5 L 174.5 38 Z " /><path fill="rgb(58,58,58)" stroke="rgb(58,58,58)" stroke-width="1" opacity="1" d="M 98.5 48 L 99 53.5 L 98 53.5 L 97 51.5 L 98.5 48 Z " /><path fill="rgb(58,58,58)" stroke="rgb(58,58,58)" stroke-width="1" opacity="1" d="M 96 69 L 101 72.5 L 99.5 72 L 96 70.5 L 96 69 Z " /><path fill="rgb(58,58,58)" stroke="rgb(58,58,58)" stroke-width="1" opacity="1" d="M 165.5 69 L 169 69.5 L 165.5 70 L 165.5 69 Z " /><path fill="rgb(58,58,58)" stroke="rgb(58,58,58)" stroke-width="1" opacity="1" d="M 88.5 70 L 92 74.5 L 85.5 78 L 86.5 75 L 83 73.5 L 86.5 72 L 88.5 73 L 88 71.5 L 88.5 70 Z M 90 73 L 88 75 L 90 75 L 90 73 Z " /><path fill="rgb(58,58,58)" stroke="rgb(58,58,58)" stroke-width="1" opacity="1" d="M 93.5 71 L 97 73.5 L 98 75.5 L 96 76 L 93.5 80 L 92 76.5 L 94 72.5 L 93.5 71 Z " /><path fill="rgb(58,58,58)" stroke="rgb(58,58,58)" stroke-width="1" opacity="1" d="M 183.5 72 Q 185 75.5 186.5 73 L 188 73.5 L 186 74.5 L 186.5 76 L 185 75.5 L 186 79 L 182 76.5 L 184 75.5 L 182 75 L 183.5 72 Z " /><path fill="rgb(58,58,58)" stroke="rgb(58,58,58)" stroke-width="1" opacity="1" d="M 102.5 79 L 104 79.5 L 99.5 82 L 100.5 80 L 102.5 79 Z " /><path fill="rgb(58,58,58)" stroke="rgb(58,58,58)" stroke-width="1" opacity="1" d="M 102.5 82 L 106 82.5 L 105.5 84 L 107 84.5 L 104 86.5 L 102.5 82 Z " /><path fill="rgb(58,58,58)" stroke="rgb(58,58,58)" stroke-width="1" opacity="1" d="M 162.5 84 L 166 84.5 L 162.5 85 L 162.5 84 Z " /><path fill="rgb(58,58,58)" stroke="rgb(58,58,58)" stroke-width="1" opacity="1" d="M 167.5 85 L 170 86.5 Q 170.8 88.8 168.5 88 L 166 89 L 167.5 85 Z " /><path fill="rgb(58,58,58)" stroke="rgb(58,58,58)" stroke-width="1" opacity="1" d="M 163.5 87 L 165 87.5 L 162 89.5 L 163.5 87 Z " /><path fill="rgb(58,58,58)" stroke="rgb(58,58,58)" stroke-width="1" opacity="1" d="M 35.5 106 L 43.5 121 L 44 112.5 L 43.5 111 L 47 111 L 47 120 L 50 120 L 50 112.5 L 49 111.5 L 53 111 L 53 120.5 L 54 121.5 L 50.5 122 L 48.5 122 L 44.5 121 Q 43 123.5 37.5 122 L 38 120.5 L 36.5 118 Q 29.2 115.8 31 121 L 33 121.5 L 28.5 122 L 29 120.5 L 35.5 106 Z M 35 112 L 33 116 L 36 116 L 35 112 Z " /><path fill="rgb(58,58,58)" stroke="rgb(58,58,58)" stroke-width="1" opacity="1" d="M 90.5 106 Q 94.3 105.3 95 107.5 L 95 120.5 L 96 121.5 L 90.5 122 L 88.5 122 L 84.5 121 L 80 122 Q 79 117.8 82 116.5 Q 80.5 112.8 75 114 L 75 120.5 L 76 121.5 L 71 122 Q 72.8 119.6 72 113.5 L 71 111 L 75.5 112 L 79.5 111 L 81.5 112 L 86.5 111 L 89 113.5 Q 87.5 119.5 90.5 121 L 91 107.5 L 90.5 106 Z M 83 112 L 83 116 L 85 115 Q 86 111 83 112 Z M 85 117 L 83 119 Q 82 121 85 120 L 85 117 Z " /><path fill="rgb(58,58,58)" stroke="rgb(58,58,58)" stroke-width="1" opacity="1" d="M 98.5 106 Q 102.3 104.8 101 108.5 L 98 110 L 97 107.5 L 98.5 106 Z " /><path fill="rgb(58,58,58)" stroke="rgb(58,58,58)" stroke-width="1" opacity="1" d="M 136.5 106 L 145 107 L 144.5 111 L 142.5 108 L 138.5 107 L 136 108 Q 134 111 135 118.5 Q 136.3 122 141 121 L 140 115.5 L 148 115 L 150.5 111 Q 156 110 157 113.5 L 158 117.5 L 154.5 122 Q 149 123 148 119.5 L 146.5 116 L 143.5 122 Q 133.8 123.8 131 118.5 L 130 112.5 L 134.5 107 L 136.5 106 Z M 153 112 Q 150 114 151 120 L 154 121 L 154 114 L 153 112 Z " /><path fill="rgb(58,58,58)" stroke="rgb(58,58,58)" stroke-width="1" opacity="1" d="M 66.5 108 L 67 111 Q 71.1 109.7 70 113 L 67 113 L 67 120 L 70 120.5 Q 69.3 122.8 65.5 122 L 64 120.5 L 63 111.5 L 66.5 108 Z " /><path fill="rgb(58,58,58)" stroke="rgb(58,58,58)" stroke-width="1" opacity="1" d="M 241 108 L 243 108 L 243 111 Q 246 110 245 113 L 243 113.5 L 243 120 L 245 120.5 Q 244.3 122.8 240.5 122 L 239 120.5 Q 239.9 113.7 238 111 L 241 109.5 L 241 108 Z " /><path fill="rgb(58,58,58)" stroke="rgb(58,58,58)" stroke-width="1" opacity="1" d="M 56.5 111 Q 63.8 108.4 62 114.5 L 62 116.5 L 63 118.5 L 60.5 122 Q 53.2 124.6 55 118.5 L 56 118.5 L 57.5 121 Q 61.3 122 60 119 L 55 115.5 Q 54.3 111.8 56.5 111 Z M 58 112 L 60 115 Q 62 116 61 114 L 58 112 Z " /><path fill="rgb(58,58,58)" stroke="rgb(58,58,58)" stroke-width="1" opacity="1" d="M 97 111 L 101 111 L 101 120.5 L 101.5 122 Q 96.1 123.9 97 120.5 Q 99.5 119 98 113.5 L 97 111 Z " /><path fill="rgb(58,58,58)" stroke="rgb(58,58,58)" stroke-width="1" opacity="1" d="M 105.5 111 Q 111 110 112 113.5 Q 110.5 119.5 113.5 121 L 114 112.5 L 113.5 111 L 121.5 111 L 123 112.5 L 124 122 L 119 121.5 L 120 120.5 L 120 113 L 118 113.5 L 118 122 L 113.5 122 L 111.5 122 L 107.5 121 L 103 122 Q 102 117.8 105 116.5 Q 102.3 115.4 103 112 L 105.5 111 Z M 106 112 L 106 115 L 106 116 L 108 115 Q 109 111 106 112 Z M 108 117 L 106 119 Q 105 121 108 120 L 108 117 Z " /><path fill="rgb(58,58,58)" stroke="rgb(58,58,58)" stroke-width="1" opacity="1" d="M 157.5 111 L 163 111.5 L 162 113.5 L 163 116 Q 165.7 117.1 165 114.5 L 166 112.5 L 165.5 111 L 168 111.5 L 164 122 Q 161.3 123.1 162 120.5 L 157.5 111 Z " /><path fill="rgb(58,58,58)" stroke="rgb(58,58,58)" stroke-width="1" opacity="1" d="M 170.5 111 Q 175 110 176 112.5 L 177 116 L 171.5 116 L 171 117.5 L 172 120 L 176.5 119 L 174.5 122 Q 169 123 168 119.5 Q 166.5 112.5 170.5 111 Z M 173 112 L 171 115 L 174 115 L 173 112 Z " /><path fill="rgb(58,58,58)" stroke="rgb(58,58,58)" stroke-width="1" opacity="1" d="M 177.5 111 L 182.5 112 L 186 111 Q 187.6 115.9 182 114 L 182 120.5 L 182.5 122 L 177 121.5 L 178 120.5 L 178 112.5 L 177.5 111 Z " /><path fill="rgb(58,58,58)" stroke="rgb(58,58,58)" stroke-width="1" opacity="1" d="M 187.5 111 L 191.5 112 L 195.5 111 L 197 112.5 L 197 120.5 L 198 121.5 L 193.5 122 L 194 120.5 L 194 113.5 L 192.5 113 Q 189.8 114.3 191 119.5 L 192 122 L 187 121.5 L 188 120.5 L 188 112.5 L 187.5 111 Z " /><path fill="rgb(58,58,58)" stroke="rgb(58,58,58)" stroke-width="1" opacity="1" d="M 199.5 111 L 204.5 112 L 208.5 111 L 210.5 112 L 214.5 111 L 216 112.5 L 216 120.5 L 217 121.5 L 212 122 L 212 113.5 L 210 113 L 210 120.5 L 211 121.5 L 199.5 122 L 200 120.5 Q 200.7 113 199.5 111 Z M 204 113 L 204 121 L 206 121 L 206 114 L 204 113 Z " /><path fill="rgb(58,58,58)" stroke="rgb(58,58,58)" stroke-width="1" opacity="1" d="M 220.5 111 Q 225.3 110.3 226 113.5 L 226 116 L 221 116 L 221 118.5 L 224.5 120 L 226 119.5 L 224.5 122 Q 219.3 123.3 218 120.5 L 217 115.5 L 220.5 111 Z M 221 112 Q 220 116 223 115 Q 224 111 221 112 Z " /><path fill="rgb(58,58,58)" stroke="rgb(58,58,58)" stroke-width="1" opacity="1" d="M 227 111 L 231.5 112 L 235.5 111 L 237 112.5 L 237 120.5 L 238 121.5 L 233 122 Q 234.6 119.9 234 114.5 Q 232.5 111.5 231 114.5 Q 229.5 120 232 121.5 L 227.5 122 L 228 120.5 Q 228.9 113.7 227 111 Z " /><path fill="rgb(58,58,58)" stroke="rgb(58,58,58)" stroke-width="1" opacity="1" d="M 13 132 L 259.5 132 L 260 134 L 13.5 134 L 13 132 Z " /><path fill="rgb(58,58,58)" stroke="rgb(58,58,58)" stroke-width="1" opacity="1" d="M 20.5 143 L 26 156 L 28 155.5 L 28 148.5 L 27.5 147 L 31 147 L 31 154.5 L 33 155.5 L 34 150.5 L 33 147 L 37 147 L 37 157 L 29.5 157 L 28.5 156 Q 27 158.5 21.5 157 L 22 155.5 Q 23.4 150.9 17.5 153 L 16 155.5 L 16.5 157 L 13 156.5 L 20.5 143 Z M 18 149 Q 16 153 21 152 L 20 151 Q 21 148 18 149 Z " /><path fill="rgb(58,58,58)" stroke="rgb(58,58,58)" stroke-width="1" opacity="1" d="M 72.5 143 L 76 143.5 L 76 155.5 L 76.5 157 L 72 156.5 L 73 155.5 L 73 144.5 L 72.5 143 Z " /><path fill="rgb(58,58,58)" stroke="rgb(58,58,58)" stroke-width="1" opacity="1" d="M 79 143 Q 83.5 141.5 82 146 Q 77.5 147.5 79 143 Z " /><path fill="rgb(58,58,58)" stroke="rgb(58,58,58)" stroke-width="1" opacity="1" d="M 109.5 143 L 119.5 143 L 122 145.5 Q 122.8 149.3 120.5 150 L 119 150.5 L 124 156.5 L 119.5 157 L 114.5 151 L 114 156 L 116 156.5 L 109.5 157 L 109.5 156 L 111 155.5 L 111 144 L 109.5 143 Z M 114 144 L 114 149 L 117 150 Q 119 149 118 146 L 114 144 Z " /><path fill="rgb(58,58,58)" stroke="rgb(58,58,58)" stroke-width="1" opacity="1" d="M 178.5 143 Q 184.2 141.2 182 147.5 L 183.5 147 L 187 148.5 Q 185.2 154.8 188 156.5 L 178.5 157 L 179 155.5 L 179 144.5 L 178.5 143 Z M 182 149 L 182 156 L 184 156 L 184 150 L 182 149 Z " /><path fill="rgb(58,58,58)" stroke="rgb(58,58,58)" stroke-width="1" opacity="1" d="M 198.5 143 Q 204 141.5 205.5 144 L 207 143.5 L 206.5 148 L 203.5 144 Q 198.8 143.3 198 146.5 Q 196.2 154.3 200.5 156 Q 205.5 157 206.5 154 L 207 156 L 200.5 158 L 194 153.5 Q 192.8 146.3 196.5 144 L 198.5 143 Z " /><path fill="rgb(58,58,58)" stroke="rgb(58,58,58)" stroke-width="1" opacity="1" d="M 249 143 Q 253.5 141.5 252 146 Q 247.5 147.5 249 143 Z " /><path fill="rgb(58,58,58)" stroke="rgb(58,58,58)" stroke-width="1" opacity="1" d="M 255 143 L 259 143.5 L 259 157 L 255 156.5 L 255 143 Z " /><path fill="rgb(58,58,58)" stroke="rgb(58,58,58)" stroke-width="1" opacity="1" d="M 49.5 144 L 50 147 Q 53 146 52 149 L 50 149 L 50 155 Q 53 154 52 157 Q 48.2 158 47 155.5 Q 47.8 149.4 46 147 Q 48.7 148.1 48 145.5 L 49.5 144 Z " /><path fill="rgb(58,58,58)" stroke="rgb(58,58,58)" stroke-width="1" opacity="1" d="M 40.5 147 Q 46.4 144.9 45 149.5 L 42.5 148 Q 39.9 147.3 41 150 L 45 152.5 L 45 157 L 39 157 L 39.5 154 L 40 156 L 43 155.5 L 39 151.5 L 39 148.5 L 40.5 147 Z " /><path fill="rgb(58,58,58)" stroke="rgb(58,58,58)" stroke-width="1" opacity="1" d="M 53.5 147 L 58.5 148 L 60.5 147 Q 62.5 151 64.5 147 Q 69 146 70 148.5 Q 69.2 154.6 71 157 L 66.5 156 L 62 157 Q 61.3 153.2 64.5 152 L 67 150.5 Q 68 146.8 65 148 Q 66.5 152.5 62 151 L 61.5 149 L 59.5 150 L 58 149.5 L 57 155.5 L 57.5 157 L 54 157 L 54 148.5 L 53.5 147 Z M 67 152 L 65 154 Q 64 156 67 155 L 67 152 Z " /><path fill="rgb(58,58,58)" stroke="rgb(58,58,58)" stroke-width="1" opacity="1" d="M 78.5 147 L 82 147 L 82 155.5 L 82.5 157 L 78 156.5 Q 80.7 154.8 79 148.5 L 78.5 147 Z " /><path fill="rgb(58,58,58)" stroke="rgb(58,58,58)" stroke-width="1" opacity="1" d="M 86.5 147 Q 91 146 92 148.5 Q 91.3 154.6 93 157 L 88.5 156 L 84 157 L 84 153 L 85.5 153 L 86.5 151 Q 82.3 152.1 84 148 L 86.5 147 Z M 88 148 Q 85 152 89 151 L 88 148 Z M 89 152 L 87 154 Q 86 156 89 155 L 89 152 Z " /><path fill="rgb(58,58,58)" stroke="rgb(58,58,58)" stroke-width="1" opacity="1" d="M 94 147 L 97.5 148 L 101.5 147 L 103 148.5 Q 101.3 154.8 104 156.5 L 99.5 157 L 100 155.5 Q 101.5 147.9 98 149 L 98 157 L 94 157 L 94 147 Z " /><path fill="rgb(58,58,58)" stroke="rgb(58,58,58)" stroke-width="1" opacity="1" d="M 126.5 147 Q 131.3 146.3 132 149.5 L 132 152 L 127 152 L 127 153.5 L 130.5 155 L 132 154.5 L 130.5 157 Q 124.4 158.3 125 155.5 Q 122.8 154.2 124 149.5 L 126.5 147 Z M 127 148 Q 126 152 129 151 Q 130 147 127 148 Z " /><path fill="rgb(58,58,58)" stroke="rgb(58,58,58)" stroke-width="1" opacity="1" d="M 134 147 Q 138.6 145.8 140 148.5 Q 140.8 150.8 138.5 150 L 136 148.5 L 137.5 151 L 140 152.5 Q 140.8 156.3 138.5 157 L 133 157 L 133 154.5 L 135.5 156 Q 137.8 156.8 137 154.5 L 134 153 L 133 149.5 L 134 147 Z " /><path fill="rgb(58,58,58)" stroke="rgb(58,58,58)" stroke-width="1" opacity="1" d="M 144.5 147 Q 148.5 146.5 149 149.5 Q 150.3 154.1 144.5 152 L 145 153.5 Q 144.2 156.1 147.5 155 L 149 154.5 L 147.5 157 Q 142 158 141 154.5 L 142 148 L 144.5 147 Z M 146 148 L 144 150 Q 143 152 146 151 L 146 148 Z " /><path fill="rgb(58,58,58)" stroke="rgb(58,58,58)" stroke-width="1" opacity="1" d="M 152.5 147 Q 158 146 159 149.5 L 159 156.5 L 156.5 157 L 154.5 157 Q 150.8 157.8 150 155.5 L 152.5 152 L 154 151.5 L 151 151 L 152.5 147 Z M 154 148 L 154 151 L 155 151 Q 156 147 154 148 Z " /><path fill="rgb(58,58,58)" stroke="rgb(58,58,58)" stroke-width="1" opacity="1" d="M 161 147 L 165.5 148 L 169 147 L 169.5 150 L 170 148 L 175.5 147 L 177 151 L 174 149.5 L 173.5 148 Q 171.3 148.8 172 152.5 L 173 155 L 177 155.5 Q 176 158 171.5 157 Q 167.8 155.5 169 150 Q 162.6 147.7 165 155.5 L 165.5 157 L 161 157 L 161 147 Z " /><path fill="rgb(58,58,58)" stroke="rgb(58,58,58)" stroke-width="1" opacity="1" d="M 210.5 147 Q 215 146 216 148.5 L 217 154.5 Q 215.3 158.5 209 157 Q 207.4 154.9 208 149.5 L 210.5 147 Z M 213 148 L 211 150 L 211 156 L 214 155 Q 215 150 213 148 Z " /><path fill="rgb(58,58,58)" stroke="rgb(58,58,58)" stroke-width="1" opacity="1" d="M 217.5 147 Q 221.3 146.3 222 148.5 L 222.5 156 Q 225.3 154.8 224 149.5 L 223 147 L 227 147 L 227 155.5 L 227.5 157 L 219.5 157 L 218 155.5 Q 218.6 148.8 217.5 147 Z " /><path fill="rgb(58,58,58)" stroke="rgb(58,58,58)" stroke-width="1" opacity="1" d="M 229 147 L 233.5 148 L 236.5 147 L 238 148.5 Q 236.2 154.8 239 156.5 L 234.5 157 L 235 155.5 Q 236.5 147.9 233 149 L 233 157 L 229 157 Q 230.6 154.9 230 149.5 L 229 147 Z " /><path fill="rgb(58,58,58)" stroke="rgb(58,58,58)" stroke-width="1" opacity="1" d="M 242.5 147 Q 247.3 146.3 248 149.5 L 245.5 151 L 243.5 148 L 243 153.5 L 247 155.5 Q 246 158 241.5 157 L 239 151.5 L 242.5 147 Z " /><path fill="rgb(58,58,58)" stroke="rgb(58,58,58)" stroke-width="1" opacity="1" d="M 248.5 147 L 252 147 L 252 155.5 L 252.5 157 L 248 156.5 Q 250.7 154.8 249 148.5 L 248.5 147 Z " /><path fill="rgb(0,0,0)" stroke="rgb(0,0,0)" stroke-width="1" opacity="0" d="M 0 0 L 273 0 L 273 170 L 0 170 L 0 0 Z M 137 13 L 135 16 L 133 15 L 133 17 Q 134 20 132 19 L 132 20 Q 135 19 134 23 L 136 22 L 138 23 Q 141 24 139 20 L 141 20 L 140 17 L 141 15 L 139 16 L 137 13 Z M 117 20 Q 116 23 119 25 Q 119 34 113 38 Q 114 40 112 39 L 105 50 L 106 55 L 100 56 L 100 57 L 103 56 L 105 57 L 103 58 Q 100 57 101 60 Q 98 63 92 63 L 93 60 L 89 63 L 86 63 L 86 65 L 84 65 L 81 62 Q 83 58 85 62 L 85 61 L 82 59 Q 79 60 80 64 L 83 66 L 110 66 L 114 69 L 112 70 L 107 69 L 107 70 Q 109 69 108 72 L 118 68 L 121 68 L 124 69 L 127 68 L 125 71 L 127 74 Q 132 75 134 72 L 136 77 L 124 79 L 120 79 L 124 78 L 120 76 L 120 71 L 119 78 L 117 75 Q 113 74 112 77 L 113 83 L 112 82 L 108 83 Q 109 85 113 84 L 114 86 Q 113 81 116 79 L 116 81 L 124 80 L 125 82 L 125 79 L 130 80 Q 132 79 131 83 L 133 83 L 132 81 L 134 80 L 135 80 L 134 83 L 136 83 L 138 83 L 140 83 L 139 82 L 139 79 Q 142 78 141 81 Q 139 82 142 84 L 130 84 L 130 83 L 129 81 L 127 80 L 126 82 Q 130 83 127 85 L 125 84 Q 121 85 123 81 L 121 81 Q 120 85 124 86 L 131 85 L 130 87 L 131 90 L 123 92 L 124 94 L 131 92 L 130 94 L 131 96 L 132 94 L 134 93 L 134 95 L 140 95 L 141 94 L 143 96 L 142 93 L 142 91 L 150 95 L 150 93 L 144 91 Q 141 90 143 89 L 142 86 L 146 84 L 148 80 L 153 81 L 152 83 L 153 85 L 153 86 L 152 84 L 151 86 L 149 87 L 159 87 L 162 78 L 161 75 L 158 74 Q 155 75 157 77 L 157 78 L 156 77 L 155 77 Q 152 76 153 71 L 152 77 L 149 79 L 139 78 L 137 77 L 138 75 L 142 72 L 143 73 Q 141 68 145 69 L 144 71 L 146 71 Q 147 69 148 72 Q 147 74 144 73 L 145 75 L 148 74 Q 149 72 151 75 L 151 72 L 150 72 L 149 71 L 147 69 L 147 68 L 150 70 L 153 68 L 146 67 L 144 68 L 146 66 L 189 66 L 191 65 L 176 64 L 175 63 Q 172 66 166 65 L 166 58 L 168 57 L 169 57 L 168 59 L 173 59 L 170 58 L 174 57 L 175 61 L 178 62 L 179 59 L 177 58 L 177 60 L 176 58 L 179 54 L 176 56 L 167 55 L 167 54 L 168 52 L 174 52 Q 175 46 171 44 L 171 42 L 170 37 L 169 41 L 164 38 Q 157 36 156 39 L 153 38 L 156 29 Q 157 24 155 23 Q 151 23 150 26 L 153 26 L 150 33 L 132 33 L 131 32 L 125 33 L 123 29 L 127 28 Q 128 25 125 26 L 123 21 L 121 22 L 117 20 Z M 131 25 L 132 27 L 142 27 L 142 25 L 131 25 Z M 95 33 L 94 38 L 96 37 L 95 33 Z M 178 33 L 178 37 L 180 36 L 181 38 L 181 35 L 179 35 Q 180 32 178 33 Z M 92 38 Q 91 42 95 43 L 96 43 L 95 40 L 97 40 L 92 38 Z M 99 38 L 97 41 L 98 44 L 99 42 L 99 38 Z M 175 38 L 174 42 L 174 43 L 176 42 L 175 38 Z M 179 38 L 179 40 L 177 43 L 179 43 L 178 45 L 180 45 L 181 42 L 181 40 L 179 38 Z M 91 42 L 91 44 L 90 47 L 94 46 L 96 49 L 96 48 L 99 46 L 99 45 Q 93 47 94 44 L 91 42 Z M 100 43 L 100 47 L 102 50 L 102 49 Q 104 47 101 46 L 102 44 L 102 46 L 103 46 Q 104 41 100 43 Z M 174 44 L 175 45 L 176 47 L 177 45 L 174 44 Z M 181 45 L 181 48 Q 184 49 183 47 L 181 45 Z M 178 47 L 179 49 L 181 49 L 178 47 Z M 99 48 L 97 52 L 98 54 L 99 54 L 99 48 Z M 103 50 L 101 52 L 104 52 Q 105 49 103 50 Z M 91 52 L 90 55 L 87 56 L 90 57 L 88 57 L 87 60 L 91 60 L 92 56 L 92 58 L 93 58 L 91 52 Z M 183 53 L 179 58 L 183 55 L 183 53 Z M 95 55 L 96 56 L 96 58 Q 93 57 94 60 L 96 59 L 95 61 L 97 61 Q 99 60 97 59 L 99 58 L 98 57 Q 99 54 95 55 Z M 182 57 L 181 60 L 183 63 L 185 62 L 183 61 L 183 60 L 186 61 L 187 61 L 185 58 L 184 58 L 182 57 Z M 188 59 L 188 62 L 189 62 Q 188 59 191 60 L 192 64 L 193 61 Q 192 58 188 59 Z M 172 60 L 173 63 Q 175 64 174 61 L 172 60 Z M 160 67 L 161 68 L 161 70 L 157 68 L 153 69 L 159 70 L 163 72 L 165 72 L 162 70 L 163 68 L 160 67 Z M 96 69 L 98 72 L 100 72 L 96 69 Z M 103 69 L 102 74 L 99 75 L 101 75 L 104 76 Q 103 73 106 74 L 105 76 L 106 81 L 106 80 L 106 78 L 108 73 L 107 72 L 104 73 L 103 71 L 105 71 L 103 69 Z M 123 69 L 121 72 L 122 75 L 123 75 L 123 69 Z M 166 69 L 166 70 L 169 70 L 166 69 Z M 89 70 Q 87 73 90 74 Q 91 76 89 75 L 89 73 L 87 74 L 85 73 L 83 74 L 87 75 L 86 78 L 92 75 L 89 70 Z M 169 71 L 168 73 L 167 72 L 165 73 Q 169 75 169 81 L 172 74 L 175 72 L 172 71 L 170 74 L 169 71 Z M 180 71 L 177 75 L 180 73 L 180 71 Z M 95 72 L 93 74 L 94 77 L 93 79 L 94 80 L 96 76 L 98 76 L 97 74 L 95 72 Z M 112 72 L 111 76 L 112 76 L 112 72 Z M 162 72 L 162 76 L 163 76 L 162 72 Z M 184 72 L 182 74 Q 181 76 184 75 Q 187 74 184 72 Z M 181 73 L 176 77 L 177 79 L 180 80 L 178 78 L 181 75 L 181 73 Z M 173 75 L 173 76 L 176 76 L 173 75 Z M 185 75 L 182 77 L 186 79 L 185 75 Z M 103 79 L 101 80 L 100 82 L 104 80 L 103 79 Z M 108 79 L 109 81 L 111 80 L 108 79 Z M 171 79 L 171 82 Q 169 85 168 81 L 163 82 L 171 84 L 173 84 Q 174 80 171 79 Z M 149 81 L 149 84 L 144 86 L 149 86 L 151 83 Q 152 80 149 81 Z M 103 82 L 104 87 L 107 85 L 106 84 L 106 83 L 103 82 Z M 119 82 L 117 85 Q 118 87 115 86 L 116 88 L 123 87 L 121 86 L 119 82 Z M 109 84 L 109 89 L 111 89 L 109 84 Z M 163 84 L 163 85 L 166 85 L 163 84 Z M 168 85 L 168 88 Q 171 89 170 87 L 168 85 Z M 167 86 L 166 89 L 168 89 L 167 86 Z M 164 87 L 162 90 L 165 88 L 164 87 Z M 36 106 L 29 121 L 29 122 L 33 122 L 31 121 Q 29 116 37 118 L 38 121 L 38 122 L 44 122 L 36 106 Z M 91 106 L 91 108 L 91 121 L 91 122 L 96 122 L 95 121 L 95 108 Q 94 105 91 106 Z M 99 106 L 97 108 L 98 110 L 101 109 Q 102 105 99 106 Z M 137 106 L 135 107 L 130 113 L 131 119 Q 134 124 144 122 L 147 116 L 148 120 Q 149 123 155 122 L 158 118 L 157 114 Q 156 110 151 111 L 148 115 L 140 116 L 141 121 Q 136 122 135 119 Q 134 111 136 108 L 139 107 L 143 108 L 145 111 L 145 107 L 137 106 Z M 67 108 L 63 112 L 64 121 L 66 122 Q 69 123 70 121 L 67 120 L 67 113 L 70 113 Q 71 110 67 111 L 67 108 Z M 241 108 L 241 110 L 238 111 Q 240 114 239 121 L 241 122 Q 244 123 245 121 L 243 120 L 243 114 L 245 113 Q 246 110 243 111 L 243 108 L 241 108 Z M 44 111 Q 45 113 44 121 Q 45 123 49 122 L 51 122 L 54 122 L 53 121 L 53 111 L 49 112 L 50 113 L 50 120 L 47 120 L 47 111 L 44 111 Z M 57 111 Q 54 112 55 116 L 60 119 Q 61 122 58 121 L 56 119 L 55 119 Q 53 125 61 122 L 63 119 L 62 117 L 58 114 Q 57 111 60 112 L 61 115 L 62 115 Q 64 108 57 111 Z M 71 111 L 72 114 Q 73 120 71 122 L 76 122 L 75 121 L 75 114 Q 81 113 82 117 Q 79 118 80 122 L 85 121 L 87 122 L 90 121 Q 88 119 89 114 L 87 111 L 82 112 L 80 111 L 76 112 L 71 111 Z M 97 111 L 98 114 Q 100 119 97 121 Q 96 124 102 122 L 101 121 L 101 111 L 97 111 Z M 106 111 L 103 112 L 105 116 L 106 112 Q 109 111 108 115 L 106 116 Q 102 117 103 122 L 108 121 L 110 122 L 113 121 Q 111 119 112 114 Q 111 110 106 111 Z M 114 111 Q 115 113 114 121 L 114 122 L 118 122 L 118 114 L 120 113 L 120 121 L 119 122 L 124 122 L 123 113 L 122 111 L 114 111 Z M 158 111 L 162 121 Q 161 123 164 122 L 166 115 L 165 115 Q 166 117 163 116 L 162 114 L 163 112 L 158 111 Z M 166 111 L 167 114 L 168 112 L 166 111 Z M 171 111 Q 167 113 168 120 Q 169 123 175 122 L 177 119 L 172 120 L 171 118 L 172 116 L 177 116 L 176 113 Q 175 110 171 111 Z M 178 111 L 178 113 L 178 121 L 177 122 L 183 122 L 182 121 L 182 114 Q 188 116 186 111 L 183 112 L 178 111 Z M 188 111 L 188 113 L 188 121 L 187 122 L 192 122 L 191 120 Q 190 114 193 113 L 194 114 L 194 121 L 194 122 L 198 122 L 197 121 L 197 113 L 196 111 L 192 112 L 188 111 Z M 200 111 Q 201 113 200 121 L 200 122 L 211 122 L 210 121 L 210 113 L 212 114 L 212 122 L 217 122 L 216 121 L 216 113 L 215 111 L 211 112 L 209 111 L 205 112 L 200 111 Z M 221 111 L 217 116 L 218 121 Q 219 123 225 122 L 226 120 L 225 120 L 221 119 L 221 116 L 226 116 L 226 114 Q 225 110 221 111 Z M 227 111 Q 229 114 228 121 L 228 122 L 232 122 Q 230 120 231 115 Q 233 112 234 115 Q 235 120 233 122 L 238 122 L 237 121 L 237 113 L 236 111 L 232 112 L 227 111 Z M 13 132 L 14 134 L 260 134 L 260 132 L 13 132 Z M 21 143 L 18 148 Q 17 150 20 149 L 21 152 L 18 152 L 18 149 L 13 157 L 17 157 L 16 156 L 18 153 Q 23 151 22 156 L 22 157 L 28 157 L 26 156 L 21 143 Z M 73 143 L 73 145 L 73 156 L 72 157 L 77 157 L 76 156 L 76 144 L 73 143 Z M 79 143 Q 78 148 82 146 Q 84 142 79 143 Z M 110 143 L 111 144 L 111 156 L 110 156 L 110 157 L 116 157 L 114 156 L 115 151 L 120 157 L 124 157 L 119 151 L 121 150 Q 123 149 122 146 L 120 143 L 110 143 Z M 179 143 L 179 145 L 179 156 L 179 157 L 188 157 Q 185 155 187 149 L 184 147 L 182 148 Q 184 141 179 143 Z M 199 143 L 197 144 Q 193 146 194 154 L 201 158 L 205 157 L 201 156 Q 196 154 198 147 Q 199 143 204 144 L 207 148 L 207 144 L 206 144 Q 204 142 199 143 Z M 249 143 Q 248 148 252 146 Q 254 142 249 143 Z M 255 143 L 255 157 L 259 157 L 259 144 L 255 143 Z M 50 144 L 48 146 Q 49 148 46 147 Q 48 149 47 156 Q 48 158 52 157 Q 53 154 50 155 L 50 149 L 52 149 Q 53 146 50 147 L 50 144 Z M 28 147 Q 29 149 28 156 L 30 157 L 37 157 L 37 147 L 33 147 L 34 151 L 33 156 L 31 155 L 31 147 L 28 147 Z M 41 147 L 39 149 L 39 152 L 43 156 L 40 156 L 40 154 L 39 157 L 45 157 L 45 153 L 41 150 Q 40 147 43 148 L 45 150 Q 46 145 41 147 Z M 54 147 L 54 149 L 54 157 L 58 157 L 57 156 L 59 149 L 61 150 Q 64 149 61 147 L 59 148 L 54 147 Z M 65 147 L 62 151 Q 67 153 65 148 Q 68 147 67 151 L 67 153 Q 68 156 65 155 L 66 153 L 65 152 Q 61 153 62 157 L 67 156 L 71 157 Q 69 155 70 149 Q 69 146 65 147 Z M 79 147 L 79 149 Q 81 155 78 157 L 83 157 L 82 156 L 82 147 L 79 147 Z M 87 147 L 84 148 Q 83 153 87 151 L 88 148 L 89 151 L 86 153 L 84 153 L 84 157 L 89 156 L 93 157 Q 91 155 92 149 Q 91 146 87 147 Z M 94 147 L 94 157 L 98 157 L 98 149 Q 102 148 100 156 L 100 157 L 104 157 Q 101 155 103 149 L 102 147 L 98 148 L 94 147 Z M 127 147 L 124 150 Q 123 154 125 156 Q 124 158 131 157 L 132 155 L 131 155 L 127 154 L 127 152 L 132 152 L 132 150 Q 131 146 127 147 Z M 134 147 L 133 150 L 134 153 L 137 155 Q 138 157 136 156 L 133 155 L 133 157 L 139 157 Q 141 156 140 153 L 138 151 L 136 149 L 139 150 Q 141 151 140 149 Q 139 146 134 147 Z M 145 147 L 142 148 L 141 155 Q 142 158 148 157 L 149 155 L 148 155 Q 144 156 145 154 L 145 152 Q 150 154 149 150 Q 149 147 145 147 Z M 153 147 L 151 151 Q 155 152 154 150 L 154 148 Q 156 147 155 151 L 153 152 L 150 156 Q 151 158 155 157 L 157 157 L 159 157 L 159 150 Q 158 146 153 147 Z M 161 147 L 161 157 L 166 157 L 165 156 L 165 150 Q 171 152 169 147 L 166 148 L 161 147 Z M 173 147 L 170 148 L 169 151 Q 168 156 172 157 Q 176 158 177 156 L 173 155 L 172 153 Q 171 149 174 148 L 176 151 Q 178 152 177 149 Q 176 146 173 147 Z M 211 147 L 208 150 Q 207 155 209 157 Q 215 159 217 155 L 216 149 Q 215 146 211 147 Z M 218 147 Q 219 149 218 156 L 220 157 L 228 157 L 227 156 L 227 147 L 223 147 L 224 150 Q 225 155 223 156 L 222 149 Q 221 146 218 147 Z M 229 147 L 230 150 Q 231 155 229 157 L 233 157 L 233 149 Q 237 148 235 156 L 235 157 L 239 157 Q 236 155 238 149 L 237 147 L 234 148 L 229 147 Z M 243 147 L 239 152 L 242 157 Q 246 158 247 156 L 243 154 L 244 148 L 246 151 L 248 150 Q 247 146 243 147 Z M 249 147 L 249 149 Q 251 155 248 157 L 253 157 L 252 156 L 252 147 L 249 147 Z M 207 154 L 205 156 L 207 156 L 207 154 Z " /><path fill="rgb(0,0,0)" stroke="rgb(0,0,0)" stroke-width="1" opacity="0" d="M 126.5 34 L 136 34.5 L 126 35 L 125.5 42 L 125 35.5 L 126.5 34 Z " /><path fill="rgb(0,0,0)" stroke="rgb(0,0,0)" stroke-width="1" opacity="0" d="M 137.5 34 L 141 34.5 L 137.5 35 L 137.5 34 Z " /><path fill="rgb(0,0,0)" stroke="rgb(0,0,0)" stroke-width="1" opacity="0" d="M 142.5 34 L 146 34.5 L 142.5 35 L 142.5 34 Z " /><path fill="rgb(0,0,0)" stroke="rgb(0,0,0)" stroke-width="1" opacity="0" d="M 127 36 Q 130.7 34.8 129 40 Q 125.3 41.2 127 36 Z " /><path fill="rgb(0,0,0)" stroke="rgb(0,0,0)" stroke-width="1" opacity="0" d="M 131 36 Q 134.3 34.7 133 39.5 L 131 38.5 L 131 36 Z " /><path fill="rgb(0,0,0)" stroke="rgb(0,0,0)" stroke-width="1" opacity="0" d="M 134 36 L 139 36 L 139 46 L 135 44 L 134.5 46 L 134 43 L 136 42.5 L 134 42 L 134 36 Z M 135 37 Q 134 40 137 39 Q 138 36 135 37 Z " /><path fill="rgb(0,0,0)" stroke="rgb(0,0,0)" stroke-width="1" opacity="0" d="M 140 36 L 145 36.5 L 141 37 L 140.5 39 L 140 36 Z " /><path fill="rgb(0,0,0)" stroke="rgb(0,0,0)" stroke-width="1" opacity="0" d="M 146.5 36 L 147 40.5 L 146 40.5 L 146.5 36 Z " /><path fill="rgb(0,0,0)" stroke="rgb(0,0,0)" stroke-width="1" opacity="0" d="M 121 43 L 124 43 L 124 50 Q 120.7 48.7 122 53.5 L 125 53.5 L 125.5 47 L 126.5 53 Q 128 50.5 129.5 54 Q 132.8 55.1 132 52.5 L 133 52.5 Q 134.5 56.9 131.5 56 L 132.5 58 Q 135.5 58.7 134 55 L 139 55 L 139.5 58 L 141 57.5 Q 141.8 59.8 139.5 59 L 137 60.5 L 136.5 59 L 135.5 61 L 133 60 L 132.5 65 Q 130 63.8 131 60 L 133 59.5 L 127.5 56 L 128.5 58 Q 130.8 57.3 130 59.5 Q 128.8 62.3 127.5 60 L 126 60.5 L 129 62.5 L 127.5 63 Q 126 60.5 120.5 62 L 118.5 63 Q 116 62 117 57.5 Q 118.5 54.5 120 57.5 L 119 59.5 L 122.5 60 L 122.5 59 L 121 58.5 L 123 57.5 L 122.5 55 L 120.5 54 L 118.5 55 L 119 53.5 L 121 43 Z M 128 53 L 127 54 Q 124 53 125 56 L 129 55 L 128 53 Z M 124 58 L 125 60 L 126 60 L 124 58 Z " /><path fill="rgb(0,0,0)" stroke="rgb(0,0,0)" stroke-width="1" opacity="0" d="M 127 43 Q 130.3 41.9 129 46 Q 125.7 47.1 127 43 Z " /><path fill="rgb(0,0,0)" stroke="rgb(0,0,0)" stroke-width="1" opacity="0" d="M 131 43 Q 134.3 41.9 133 46 Q 129.7 47.1 131 43 Z " /><path fill="rgb(0,0,0)" stroke="rgb(0,0,0)" stroke-width="1" opacity="0" d="M 140.5 43 L 141 45.5 L 140 45.5 L 140.5 43 Z " /><path fill="rgb(0,0,0)" stroke="rgb(0,0,0)" stroke-width="1" opacity="0" d="M 146.5 43 L 147 47.5 L 146 47.5 L 146.5 43 Z " /><path fill="rgb(0,0,0)" stroke="rgb(0,0,0)" stroke-width="1" opacity="0" d="M 149.5 46 L 154.5 50 L 158 50 Q 159 53.8 156.5 55 L 153.5 54 L 153.5 56 L 151.5 55 L 150 57.5 L 151.5 58 L 155.5 56 L 156 57.5 L 153.5 61 L 146.5 59 L 145.5 61 Q 150.3 60.3 152 62.5 L 144.5 65 L 141 68.5 L 139.5 71 L 140 69.5 L 140 67.5 L 145 61.5 L 143 61 L 144 57.5 L 140 56 Q 138.7 52.7 143.5 54 L 145 53.5 L 144.5 55 L 146.5 56 Q 150.2 53.2 149.5 46 Z M 153 50 L 152 53 L 150 54 L 153 54 L 153 50 Z " /><path fill="rgb(0,0,0)" stroke="rgb(0,0,0)" stroke-width="1" opacity="0" d="M 128.5 47 L 133 47.5 L 129.5 49 L 128.5 47 Z " /><path fill="rgb(0,0,0)" stroke="rgb(0,0,0)" stroke-width="1" opacity="0" d="M 134 47 L 139 47 L 139 49 Q 136 47.8 137 51.5 L 135.5 51 L 134 51 L 134 47 Z " /><path fill="rgb(0,0,0)" stroke="rgb(0,0,0)" stroke-width="1" opacity="0" d="M 140 47 L 145 47 L 145 49 L 142.5 48 L 140 49 L 140 47 Z " /><path fill="rgb(0,0,0)" stroke="rgb(0,0,0)" stroke-width="1" opacity="0" d="M 146.5 50 L 147 53.5 L 146 53.5 L 146.5 50 Z " /><path fill="rgb(0,0,0)" stroke="rgb(0,0,0)" stroke-width="1" opacity="0" d="M 161 51 Q 164 50 163 53 Q 160 54 161 51 Z " /><path fill="rgb(0,0,0)" stroke="rgb(0,0,0)" stroke-width="1" opacity="0" d="M 113.5 55 L 114 58.5 L 113 65 L 107 64.5 L 113.5 55 Z " /><path fill="rgb(0,0,0)" stroke="rgb(0,0,0)" stroke-width="1" opacity="0" d="M 158.5 56 L 160.5 56 L 164 56 L 164 62 L 155 64 L 158.5 56 Z M 159 58 L 159 59 L 161 59 L 159 58 Z " /><path fill="rgb(0,0,0)" stroke="rgb(0,0,0)" stroke-width="1" opacity="0" d="M 105.5 58 L 103.5 61 L 105.5 58 Z " /><path fill="rgb(0,0,0)" stroke="rgb(0,0,0)" stroke-width="1" opacity="0" d="M 140.5 60 L 141 64.5 L 139 65.5 L 140.5 60 Z " /><path fill="rgb(0,0,0)" stroke="rgb(0,0,0)" stroke-width="1" opacity="0" d="M 135 62 Q 140.3 60.2 138 67.5 L 137.5 70 Q 133.5 68.3 135 62 Z " /><path fill="rgb(0,0,0)" stroke="rgb(0,0,0)" stroke-width="1" opacity="0" d="M 129.5 65 L 133 67.5 L 134 70.5 L 132 69.5 L 130.5 66 L 129.5 65 Z " /><path fill="rgb(0,0,0)" stroke="rgb(0,0,0)" stroke-width="1" opacity="0" d="M 115.5 66 L 127.5 66 L 130 67.5 L 128.5 68 L 127.5 67 L 115.5 67 L 115.5 66 Z " /><path fill="rgb(0,0,0)" stroke="rgb(0,0,0)" stroke-width="1" opacity="0" d="M 129.5 69 L 131 71.5 L 127.5 73 Q 124.5 71.5 127.5 70 L 129 70.5 L 129.5 69 Z " /><path fill="rgb(0,0,0)" stroke="rgb(0,0,0)" stroke-width="1" opacity="0" d="M 151.5 78 Q 155.3 77 154 80 L 151.5 78 Z " /><path fill="rgb(0,0,0)" stroke="rgb(0,0,0)" stroke-width="1" opacity="0" d="M 142.5 79 Q 146.3 77.8 145 81.5 L 143 82.5 L 142.5 79 Z " /><path fill="rgb(0,0,0)" stroke="rgb(0,0,0)" stroke-width="1" opacity="0" d="M 154 81 L 159 81 L 159 84.5 L 155 86 L 154 81 Z " /><path fill="rgb(0,0,0)" stroke="rgb(0,0,0)" stroke-width="1" opacity="0" d="M 132 86 Q 135 85 134 88 Q 131 89 132 86 Z " /><path fill="rgb(0,0,0)" stroke="rgb(0,0,0)" stroke-width="1" opacity="0" d="M 139 86 Q 142 85 141 88 Q 138 89 139 86 Z " /><path fill="rgb(0,0,0)" stroke="rgb(0,0,0)" stroke-width="1" opacity="0" d="M 136 90 Q 139.3 88.9 138 93 L 135 92.5 L 136 90 Z " /><path fill="rgb(0,0,0)" stroke="rgb(0,0,0)" stroke-width="1" opacity="0" d="M 34.5 112 L 36 115.5 L 33 116 L 34.5 112 Z " /><path fill="rgb(0,0,0)" stroke="rgb(0,0,0)" stroke-width="1" opacity="0" d="M 83 112 Q 86 110.8 85 114.5 L 83 115.5 L 83 112 Z " /><path fill="rgb(0,0,0)" stroke="rgb(0,0,0)" stroke-width="1" opacity="0" d="M 152.5 112 L 154 113.5 L 154 121 L 151 119.5 Q 149.5 113.5 152.5 112 Z " /><path fill="rgb(0,0,0)" stroke="rgb(0,0,0)" stroke-width="1" opacity="0" d="M 172.5 112 L 174 114.5 L 171 115 L 172.5 112 Z " /><path fill="rgb(0,0,0)" stroke="rgb(0,0,0)" stroke-width="1" opacity="0" d="M 221 112 Q 224.3 110.9 223 115 Q 219.7 116.1 221 112 Z " /><path fill="rgb(0,0,0)" stroke="rgb(0,0,0)" stroke-width="1" opacity="0" d="M 204 113 L 206 113.5 L 206 121 L 204 120.5 L 204 113 Z " /><path fill="rgb(0,0,0)" stroke="rgb(0,0,0)" stroke-width="1" opacity="0" d="M 84.5 117 L 85 120 Q 82.3 121.1 83 118.5 L 84.5 117 Z " /><path fill="rgb(0,0,0)" stroke="rgb(0,0,0)" stroke-width="1" opacity="0" d="M 107.5 117 L 108 120 Q 105.3 121.1 106 118.5 L 107.5 117 Z " /><path fill="rgb(0,0,0)" stroke="rgb(0,0,0)" stroke-width="1" opacity="0" d="M 114 144 L 118 145.5 Q 118.8 149.3 116.5 150 L 114 148.5 L 114 144 Z " /><path fill="rgb(0,0,0)" stroke="rgb(0,0,0)" stroke-width="1" opacity="0" d="M 127 148 Q 130.3 146.9 129 151 Q 125.7 152.1 127 148 Z " /><path fill="rgb(0,0,0)" stroke="rgb(0,0,0)" stroke-width="1" opacity="0" d="M 145.5 148 L 146 151 Q 143.3 152.1 144 149.5 L 145.5 148 Z " /><path fill="rgb(0,0,0)" stroke="rgb(0,0,0)" stroke-width="1" opacity="0" d="M 212.5 148 Q 214.8 149.8 214 154.5 L 211 156 L 211 149.5 L 212.5 148 Z " /><path fill="rgb(0,0,0)" stroke="rgb(0,0,0)" stroke-width="1" opacity="0" d="M 182 149 L 184 149.5 L 184 156 L 182 155.5 L 182 149 Z " /><path fill="rgb(0,0,0)" stroke="rgb(0,0,0)" stroke-width="1" opacity="0" d="M 88.5 152 L 89 155 Q 86.3 156.1 87 153.5 L 88.5 152 Z " /></svg>