<svg xmlns="http://www.w3.org/2000/svg" width="2319" height="2049" viewBox="0 0 2319 2049" version="1.1"><path d="" stroke="none" fill="#0485fc" fill-rule="evenodd"/><path d="M 185 38.108 C 165.352 40.332, 148.069 45.382, 130.500 54.033 C 77.934 79.916, 47.170 137.563, 40.060 223.500 C 37.341 256.364, 37.643 274.719, 42.056 345 C 53.547 528.012, 76.265 772.640, 91.043 872.500 C 97.371 915.264, 102.527 935.048, 116.714 971 C 175.399 1119.724, 304.679 1214.739, 486 1242.410 C 521.237 1247.788, 552.538 1250.001, 593.330 1249.998 C 629.355 1249.996, 652.383 1248.698, 691 1244.490 C 693.475 1244.221, 686.725 1245.971, 676 1248.381 C 593.054 1267.014, 529.584 1288.576, 472.500 1317.513 C 391.516 1358.565, 336.363 1408.863, 306.937 1468.500 C 295.655 1491.368, 288.895 1512.687, 285.343 1536.606 C 282.923 1552.902, 282.924 1585.125, 285.345 1601 C 296.002 1670.883, 331.107 1737.465, 394.484 1808 C 408.228 1823.296, 448.021 1862.503, 465.572 1878.042 C 551.621 1954.222, 628.782 1996.009, 706.688 2008.618 C 719.821 2010.744, 756.715 2011.579, 771.243 2010.080 C 884.977 1998.341, 986.418 1905.633, 1069.498 1737.500 C 1096.698 1682.454, 1114.980 1637.417, 1143.034 1556.348 C 1154.738 1522.525, 1158.793 1512.422, 1159.026 1516.500 C 1159.136 1518.414, 1159.173 1518.418, 1159.884 1516.604 C 1160.946 1513.899, 1163.194 1519.490, 1176.524 1558 C 1192.417 1603.913, 1196.798 1615.803, 1209.500 1647.500 C 1258.054 1768.670, 1311.807 1857.731, 1373.598 1919.387 C 1424.129 1969.809, 1475.760 1998.283, 1535.500 2008.676 C 1550.123 2011.220, 1595.868 2011.229, 1612 2008.691 C 1689.210 1996.544, 1766.874 1954.525, 1853.428 1878.070 C 1871.976 1861.686, 1918.861 1814.819, 1932.728 1798.801 C 1983.637 1739.995, 2016.973 1679.652, 2029.378 1623.849 C 2034.150 1602.385, 2035.417 1590.874, 2035.417 1569 C 2035.417 1546.808, 2033.983 1534.071, 2029.336 1515 C 2018.034 1468.610, 1988.745 1422.019, 1947.896 1385.452 C 1878.153 1323.019, 1781.262 1279.461, 1643 1248.383 C 1632.275 1245.972, 1625.525 1244.220, 1628 1244.489 C 1672.240 1249.293, 1694.698 1250.356, 1737.928 1249.690 C 1758.043 1249.380, 1779.450 1248.653, 1785.500 1248.073 C 1856.950 1241.229, 1909.663 1229.122, 1964.746 1206.905 C 2040.679 1176.278, 2105.725 1126.762, 2150.501 1065.500 C 2184.205 1019.386, 2211.600 958.710, 2222.008 907.122 C 2235.255 841.460, 2256.517 632.212, 2272.471 410.500 C 2280.992 292.085, 2282.052 261.407, 2278.934 223.500 C 2271.877 137.708, 2241.027 79.897, 2188.500 54.033 C 2169.922 44.885, 2153.871 40.351, 2131.500 37.929 C 2117.225 36.384, 2088.568 37.319, 2071.469 39.887 C 1981.280 53.432, 1871.438 107.719, 1769.225 189.265 C 1641.647 291.047, 1498.500 447.954, 1364.405 633 C 1282.299 746.304, 1208.412 864.796, 1162.826 956.272 L 1159.451 963.045 1156.138 956.272 C 1120.439 883.303, 1052.605 772.119, 984.517 674.980 C 842.689 472.636, 687.007 298.678, 550 189.454 C 440.552 102.200, 323.391 46.494, 231.500 38.016 C 218.738 36.839, 195.815 36.884, 185 38.108" stroke="none" fill="#0c84fc" fill-rule="evenodd"/></svg>