<?xml version="1.0" standalone="no"?>
<!DOCTYPE svg PUBLIC "-//W3C//DTD SVG 20010904//EN"
 "http://www.w3.org/TR/2001/REC-SVG-20010904/DTD/svg10.dtd">
<svg version="1.0" xmlns="http://www.w3.org/2000/svg"
 width="2319.000000pt" height="2049.000000pt" viewBox="0 0 2319.000000 2049.000000"
 preserveAspectRatio="xMidYMid meet">

<g transform="translate(0.000000,2049.000000) scale(0.100000,-0.100000)"
fill="#000000" stroke="none">
<path d="M1808 20095 c-254 -35 -491 -124 -678 -256 -114 -80 -265 -237 -349
-363 -200 -300 -311 -652 -368 -1159 -23 -206 -23 -692 0 -1047 165 -2545 415
-5134 568 -5865 51 -249 163 -574 293 -855 547 -1182 1582 -1999 2984 -2354
861 -218 1787 -258 2811 -120 184 25 261 28 114 5 -136 -22 -460 -90 -693
-147 -1307 -317 -2285 -801 -2911 -1440 -234 -241 -387 -453 -514 -716 -145
-303 -209 -559 -222 -893 -28 -749 307 -1535 1004 -2351 253 -298 789 -812
1129 -1085 1051 -843 2007 -1183 2898 -1029 474 82 942 317 1366 685 123 107
382 372 489 500 509 610 959 1411 1364 2425 118 296 190 493 344 940 114 331
133 377 158 377 25 0 43 -45 170 -412 533 -1546 1038 -2538 1696 -3330 114
-137 452 -473 575 -573 419 -336 834 -534 1283 -612 905 -158 1920 215 2976
1095 331 275 815 746 1049 1020 603 705 928 1375 996 2054 51 509 -86 1038
-382 1482 -112 167 -185 256 -348 423 -624 638 -1603 1123 -2910 1440 -233 57
-557 125 -693 147 -43 6 -76 14 -73 16 2 3 87 -7 188 -21 742 -103 1467 -107
2148 -10 1385 196 2494 798 3202 1739 346 460 631 1080 738 1605 136 670 359
2883 520 5160 78 1110 85 1457 34 1850 -73 572 -246 983 -534 1270 -208 209
-466 339 -785 396 -123 22 -414 29 -572 15 -842 -79 -1911 -559 -2921 -1313
-1259 -940 -2742 -2520 -4133 -4403 -875 -1184 -1675 -2448 -2153 -3402 -36
-73 -68 -133 -70 -133 -2 0 -56 100 -119 223 -402 780 -930 1643 -1576 2572
-1577 2271 -3362 4216 -4828 5263 -854 609 -1787 1040 -2514 1161 -260 43
-551 53 -751 26z"/>
</g>
</svg>
