<svg xmlns="http://www.w3.org/2000/svg" width="2048" height="2048" viewBox="0 0 2048 2048" version="1.1"><path d="M 991.712 854.027 C 860.601 861.851, 740.439 909.222, 640.934 992.313 C 547.885 1070.013, 478.991 1176.918, 447.513 1292.449 C 432.923 1345.997, 426.557 1394.686, 426.652 1452 C 426.811 1546.779, 447.379 1633.855, 489.468 1717.934 C 519.892 1778.709, 556.603 1828.929, 606.120 1877.515 C 703.946 1973.499, 825.143 2030.256, 965 2045.582 C 984.634 2047.734, 1041.510 2048.603, 1063.556 2047.089 C 1207.191 2037.224, 1339.322 1978.095, 1441.378 1878.013 C 1491.150 1829.203, 1528.001 1778.918, 1558.195 1718.608 C 1623.760 1587.650, 1639.021 1440.851, 1601.923 1298.004 C 1586.176 1237.369, 1557.566 1174.261, 1520.771 1119 C 1419.318 966.628, 1252.727 869.229, 1069.334 855.063 C 1049.961 853.566, 1008.668 853.015, 991.712 854.027" stroke="none" fill="#a3c3fb" fill-rule="evenodd"/><path d="M 511.715 405.059 C 230.272 627.868, 0.026 810.467, 0.058 810.833 C 0.111 811.449, 478.503 1201.183, 479.911 1201.757 C 480.257 1201.898, 483.546 1195.823, 487.221 1188.257 C 530.599 1098.927, 599.043 1018.938, 681.500 961.209 C 819.673 864.472, 990.785 830.954, 1156.500 868.165 C 1328.841 906.863, 1477.430 1023.070, 1557.150 1181.500 C 1562.685 1192.500, 1567.353 1201.650, 1567.524 1201.834 C 1567.954 1202.297, 2048.419 811.034, 2048.844 809.875 C 2049.033 809.359, 2048.747 809.064, 2048.208 809.219 C 2047.670 809.373, 1817.373 627.543, 1536.437 405.151 C 1255.502 182.758, 1025.147 0.610, 1024.537 0.376 C 1023.928 0.142, 793.158 182.249, 511.715 405.059" stroke="none" fill="#3c78db" fill-rule="evenodd"/></svg>