<svg version="1.1" id="Layer_1" xmlns="http://www.w3.org/2000/svg" xmlns:xlink="http://www.w3.org/1999/xlink" x="0px" y="0px"
	 width="100%" viewBox="0 0 800 704" enable-background="new 0 0 800 704" xml:space="preserve">
<path fill="#000000" opacity="1.000000" stroke="none" 
	d="
M480.169952,243.929764 
	C479.420441,249.892288 478.092224,255.331772 475.673492,260.513916 
	C469.599060,273.528656 457.933594,279.056244 444.040222,275.362305 
	C442.027710,274.827209 439.968658,273.533020 438.236237,276.046997 
	C436.723328,278.242432 434.903259,280.135010 437.212372,283.042358 
	C438.491119,284.652374 437.712433,286.552124 436.257843,287.971222 
	C434.601959,289.586731 433.017883,288.940979 431.303650,287.923889 
	C428.539429,286.283905 426.250702,282.235474 422.276947,285.675079 
	C419.159363,288.373566 418.345947,295.988281 420.576935,300.200195 
	C422.919952,304.623566 427.101227,306.550751 431.861359,305.371704 
	C433.713104,304.913086 435.403442,303.594086 437.417114,304.038513 
	C438.374023,306.289246 437.092834,307.435455 435.877808,308.538208 
	C429.743378,314.105927 419.059265,313.920227 413.583405,308.178223 
	C408.188507,302.521118 408.313751,292.307587 413.819427,286.298828 
	C417.780487,281.975891 422.951294,280.104553 428.531067,279.902344 
	C433.234528,279.731812 432.997559,277.723724 431.477020,274.568726 
	C431.404938,274.419098 431.331482,274.270020 431.254913,274.122589 
	C430.335876,272.352997 427.879181,270.217682 430.870605,268.761963 
	C433.701233,267.384552 434.165527,270.566925 435.153564,272.343292 
	C435.388580,272.765778 435.584106,273.210205 435.830933,273.711853 
	C437.866058,273.274658 438.297791,271.757782 438.664062,270.076874 
	C442.005463,254.742355 445.776428,251.046997 461.348328,249.070648 
	C467.399750,248.302582 473.167145,247.331284 478.044220,243.383698 
	C478.732727,242.826401 479.506500,242.578934 480.169952,243.929764 
z"/>
<path fill="#000000" opacity="1.000000" stroke="none" 
	d="
M318.640076,372.773651 
	C314.767639,372.717590 311.322693,372.148621 307.810760,372.788971 
	C306.019745,373.115570 303.959656,372.818634 303.230103,370.681000 
	C302.495728,368.529236 304.249786,367.640869 305.783630,367.073181 
	C308.009033,366.249512 308.688354,364.670471 308.960602,362.507996 
	C310.003082,354.227600 309.776917,345.902435 309.997253,337.592651 
	C310.074127,334.693054 308.726501,332.950745 305.947235,332.084290 
	C304.444611,331.615845 303.253021,330.533234 303.637848,328.730743 
	C304.034119,326.874695 305.633942,326.807068 307.173370,326.669861 
	C314.265625,326.037537 320.215485,327.011078 324.951477,333.665253 
	C329.702606,340.340759 335.632538,346.263336 342.596558,352.428589 
	C342.596558,346.504761 342.648315,341.439728 342.572266,336.376556 
	C342.539703,334.210754 340.835602,333.296112 339.129944,332.518311 
	C337.492828,331.771759 336.167694,330.773651 336.664429,328.742126 
	C337.113770,326.904602 338.738708,326.758362 340.257599,326.736450 
	C344.085022,326.681213 347.913696,326.676483 351.741486,326.703369 
	C353.082123,326.712769 354.524841,326.796234 355.021423,328.380707 
	C355.477814,329.837036 354.924347,331.173157 353.581726,331.741302 
	C349.522766,333.458923 349.405884,337.000732 349.377869,340.525696 
	C349.305084,349.679260 349.370544,358.833954 349.301453,367.987579 
	C349.287170,369.878479 350.051208,372.320587 347.597595,373.239349 
	C345.041779,374.196350 343.200195,372.625824 341.586761,370.760101 
	C334.621826,362.705963 327.643921,354.662842 320.625488,346.655334 
	C319.568604,345.449524 318.705475,343.951843 316.398651,343.237396 
	C316.398651,350.041199 316.367828,356.615356 316.416199,363.188965 
	C316.432007,365.342041 318.121490,366.150208 319.720764,367.160736 
	C323.311066,369.429230 323.118469,370.592957 318.640076,372.773651 
z"/>
<path fill="#000000" opacity="1.000000" stroke="none" 
	d="
M345.989136,385.867340 
	C348.465790,388.432434 348.227386,397.072418 345.975342,399.094360 
	C343.818665,401.030701 342.067657,400.051666 341.469086,397.722015 
	C340.370483,393.445831 337.452484,393.426666 334.094696,393.987000 
	C329.970215,394.675262 331.329498,397.973785 331.285400,400.356049 
	C331.159149,407.180176 331.392700,414.010742 331.283325,420.835541 
	C331.230682,424.119995 331.657959,426.790771 335.401672,427.751343 
	C336.929962,428.143463 338.236115,429.119659 337.887665,430.941376 
	C337.551147,432.700531 336.021820,433.209259 334.448761,433.223022 
	C328.289581,433.276917 322.129578,433.284912 315.970306,433.245026 
	C314.568542,433.235931 313.308807,432.706909 312.980927,431.127991 
	C312.654388,429.555420 313.540131,428.424438 314.873260,428.018097 
	C318.304840,426.972076 318.720367,424.445038 318.791656,421.385345 
	C318.965973,413.904236 319.417694,406.429657 319.601593,398.948608 
	C319.650696,396.951721 320.484375,394.193451 317.459503,393.565735 
	C314.677979,392.988525 311.838074,392.955963 309.738800,395.653442 
	C308.353149,397.433990 307.722015,401.168549 304.440369,399.466644 
	C301.432495,397.906677 302.996155,394.801727 303.471344,392.237061 
	C303.743195,390.770020 303.640717,389.216644 304.035858,387.793518 
	C304.567169,385.879913 305.645477,384.591949 308.047699,385.206512 
	C320.490204,388.389465 333.017670,387.308136 345.989136,385.867340 
z"/>
<path fill="#000000" opacity="1.000000" stroke="none" 
	d="
M304.396179,307.424011 
	C307.700165,306.262054 308.761017,304.223724 308.708984,301.130096 
	C308.580109,293.465820 308.644897,285.797546 308.696747,278.131348 
	C308.715363,275.379578 308.815063,272.778809 305.371826,271.763397 
	C303.997772,271.358154 303.363373,270.013733 303.702026,268.512787 
	C304.076202,266.854431 305.467590,266.682434 306.831970,266.647888 
	C311.991699,266.517242 317.152130,266.368500 322.312775,266.348907 
	C323.794556,266.343292 325.424591,266.586639 325.997742,268.338501 
	C326.578278,270.112915 325.596649,271.375122 324.079437,271.879120 
	C321.317657,272.796539 320.658997,275.042999 320.566437,277.372192 
	C320.249054,285.357330 319.965820,293.356628 320.723907,301.333618 
	C320.960602,303.823914 321.332642,306.286621 324.454559,307.153381 
	C325.912048,307.557983 327.113800,308.783142 326.571228,310.594757 
	C326.046997,312.345062 324.368622,312.658936 322.905762,312.652222 
	C317.413757,312.627014 311.912842,312.576721 306.435211,312.224976 
	C303.655060,312.046448 301.885132,310.714203 304.396179,307.424011 
z"/>
<path fill="#000000" opacity="1.000000" stroke="none" 
	d="
M395.919495,357.561066 
	C396.387726,358.401001 396.710449,358.959747 397.068329,359.579437 
	C401.660767,353.419556 402.119751,354.123505 396.059631,345.386780 
	C400.735413,344.056183 405.244873,344.739410 410.407776,344.948547 
	C406.524963,350.794495 410.264374,354.974487 412.439575,359.751404 
	C417.140930,352.191620 417.250183,350.590973 413.319885,345.414978 
	C417.482147,344.201050 421.461975,344.575043 426.381378,345.185211 
	C418.432251,352.282928 416.546112,361.920776 412.424683,370.396301 
	C411.906281,371.462372 411.439545,372.608246 409.993958,372.511047 
	C408.625061,372.419006 408.106659,371.339203 407.644958,370.228790 
	C406.247131,366.867035 404.827850,363.514160 403.242218,359.742188 
	C398.430389,363.178894 399.078400,369.740356 394.260010,373.314728 
	C388.042175,364.769165 388.085327,353.101715 378.960205,345.512695 
	C384.465546,343.977264 389.253540,344.885864 394.835693,344.796143 
	C391.571259,349.721985 394.298615,353.409210 395.919495,357.561066 
z"/>
<path fill="#000000" opacity="1.000000" stroke="none" 
	d="
M506.822296,372.316864 
	C503.685120,372.007324 500.792816,373.058838 497.773865,371.109680 
	C502.456543,366.730652 500.919922,361.116302 501.503082,356.042633 
	C501.871735,352.835327 500.925323,349.487579 496.579132,349.406097 
	C492.083954,349.321838 492.082916,352.671753 492.367950,355.715759 
	C492.840210,360.760468 490.199005,366.463715 495.557129,370.405182 
	C492.160492,372.970795 484.070740,373.045441 480.359985,370.741150 
	C486.167847,364.941559 483.578308,357.848663 483.214020,351.166870 
	C483.127258,349.575806 480.700348,347.824768 483.111816,346.470123 
	C485.638153,345.051025 489.207855,342.265106 491.182526,344.136292 
	C493.572968,346.401520 494.890228,345.177765 496.694824,344.570068 
	C503.412933,342.307800 508.380371,345.190430 509.315094,352.170563 
	C509.754791,355.454254 510.169586,358.827850 509.884766,362.098816 
	C509.568207,365.734161 511.260834,368.279694 513.462830,370.665009 
	C511.630219,373.149109 509.278168,372.003052 506.822296,372.316864 
z"/>
<path fill="#000000" opacity="1.000000" stroke="none" 
	d="
M377.427490,433.166077 
	C371.534821,431.466400 371.119629,427.029144 370.976776,422.353027 
	C370.813538,417.008972 372.246979,411.365204 367.992523,406.947845 
	C369.265869,405.309326 370.876526,405.406555 372.274841,405.148804 
	C378.910736,403.925476 380.060944,404.855988 379.976349,411.487518 
	C379.936188,414.637787 379.645264,417.785828 379.435516,420.932678 
	C379.219269,424.177032 379.582703,427.280060 383.615906,427.537048 
	C387.720001,427.798584 387.791229,424.626984 387.782379,421.662445 
	C387.779388,420.664520 387.801361,419.666199 387.781403,418.668701 
	C387.694855,414.343536 388.988190,409.555634 382.551483,407.050323 
	C387.054932,405.056061 390.610931,404.844055 394.151184,404.641571 
	C396.575653,404.502930 396.682983,406.130524 396.603546,407.981903 
	C396.454010,411.467651 396.348755,414.958862 396.363312,418.447205 
	C396.380920,422.673889 394.899353,427.522705 401.178802,429.800476 
	C396.463593,431.196503 392.714600,435.147888 387.808990,431.765045 
	C386.329407,430.744720 385.266113,431.735962 384.156403,432.277802 
	C382.123749,433.270325 380.016022,433.411774 377.427490,433.166077 
z"/>
<path fill="#000000" opacity="1.000000" stroke="none" 
	d="
M449.188995,361.324005 
	C448.353882,353.027985 451.629028,347.532715 458.664276,344.813904 
	C465.033752,342.352386 472.239380,344.188263 476.273102,349.300385 
	C480.312805,354.420013 480.510803,361.654633 476.522095,366.898560 
	C473.033203,371.485413 468.069153,373.570099 462.517334,372.907379 
	C455.917786,372.119659 451.152405,368.471741 449.188995,361.324005 
M470.057770,358.554626 
	C469.887634,356.234528 469.778198,353.911530 468.741425,351.748871 
	C467.687408,349.550232 466.303101,347.485809 463.684814,347.538452 
	C460.755127,347.597351 459.470673,350.041779 458.734131,352.461517 
	C457.851532,355.361145 457.980865,358.447266 458.601227,361.360260 
	C459.377014,365.003021 460.799286,369.289703 465.078369,369.069366 
	C469.301086,368.852020 469.589050,364.443298 469.963135,360.923340 
	C470.015808,360.427887 470.027100,359.927979 470.057770,358.554626 
z"/>
<path fill="#000000" opacity="1.000000" stroke="none" 
	d="
M360.340057,292.292999 
	C358.339813,293.527130 356.660828,294.662750 354.520233,294.080658 
	C354.299805,293.791199 353.917694,293.519745 353.937012,293.280701 
	C354.316284,288.576294 360.878815,283.653564 366.624664,283.725189 
	C371.391022,283.784607 374.722778,287.002533 375.191345,292.345551 
	C375.437225,295.149933 375.401886,298.006683 375.188995,300.816711 
	C374.917603,304.398651 375.435730,307.172729 379.940399,306.925934 
	C378.453705,312.211700 374.081757,314.501740 369.736511,312.087189 
	C367.465515,310.825256 365.833282,310.486847 363.381561,311.624115 
	C358.733276,313.780365 355.343384,312.472229 353.934845,308.559265 
	C352.393402,304.277069 354.094971,301.042206 358.817505,299.372406 
	C360.538513,298.763885 362.322235,298.328369 364.030060,297.687958 
	C367.051819,296.554749 368.162994,291.625580 365.726837,289.515625 
	C362.299377,286.547058 361.752350,290.031647 360.340057,292.292999 
M361.678375,303.043396 
	C361.067871,305.514008 362.351227,307.592285 364.502075,307.115906 
	C367.904907,306.362213 366.719299,303.419159 366.269806,300.815033 
	C364.467407,300.866852 363.159943,301.407684 361.678375,303.043396 
z"/>
<path fill="#000000" opacity="1.000000" stroke="none" 
	d="
M396.664551,311.657745 
	C394.619446,309.780457 393.017181,310.978699 391.325897,311.623505 
	C386.364288,313.515015 383.329651,312.509583 381.809021,308.568573 
	C380.162720,304.301849 382.072235,300.888947 387.113495,299.155792 
	C388.685944,298.615204 390.321808,298.248474 391.870331,297.651093 
	C394.785583,296.526550 396.028076,292.223572 394.029724,289.846222 
	C392.470184,287.990906 390.583710,287.492096 389.432800,290.243225 
	C388.021515,293.616730 385.174072,293.896301 382.248444,294.311279 
	C380.733765,291.873657 382.042969,290.348419 383.490540,288.902374 
	C385.778931,286.616333 388.562408,285.098175 391.615936,284.164307 
	C396.634583,282.629364 400.792786,285.009247 402.476837,290.081055 
	C403.670593,293.676361 403.335297,297.359863 403.104462,300.981201 
	C402.880188,304.500336 403.574188,306.943085 407.622894,307.015442 
	C406.134277,312.481598 402.661713,313.970886 396.664551,311.657745 
M394.468201,301.559113 
	C391.981750,300.118591 390.276245,301.235321 389.533264,303.538422 
	C388.942749,305.368805 390.176208,307.163818 391.996033,307.105164 
	C395.108551,307.004761 394.599335,304.315338 394.468201,301.559113 
z"/>
<path fill="#000000" opacity="1.000000" stroke="none" 
	d="
M354.462036,361.364746 
	C353.603241,349.160919 363.238190,340.710541 372.947144,344.667511 
	C374.851868,345.443817 376.445892,346.553314 377.528900,348.322266 
	C380.235626,352.743500 378.957245,355.149750 373.780090,355.299438 
	C371.124146,355.376282 368.462341,355.414307 365.807617,355.329681 
	C362.390137,355.220795 361.922180,357.204681 362.479309,359.874146 
	C363.504883,364.788330 368.966858,367.537048 373.750061,365.757904 
	C375.225159,365.209229 376.277008,363.539581 378.154694,363.897400 
	C378.046051,369.138519 374.345215,372.351624 367.960693,372.903809 
	C360.992310,373.506470 356.273895,369.588531 354.462036,361.364746 
M368.816223,351.587769 
	C370.868591,350.658813 371.382751,349.045990 369.410187,347.940765 
	C366.568237,346.348358 364.949615,348.237732 363.811951,350.688538 
	C365.146332,352.254883 366.714996,351.584015 368.816223,351.587769 
z"/>
<path fill="#000000" opacity="1.000000" stroke="none" 
	d="
M416.823914,416.158051 
	C422.576752,420.515808 423.674286,425.179718 420.225281,429.465393 
	C417.086243,433.365906 407.498627,434.974670 404.166351,431.823914 
	C401.983002,429.759491 400.729095,427.010651 403.232666,424.039917 
	C405.867004,424.874451 406.415863,427.637360 408.502472,428.759552 
	C410.455994,429.810120 412.388367,430.313934 413.838684,428.286957 
	C415.373322,426.142120 413.490021,424.964905 412.045593,423.869110 
	C410.854462,422.965454 409.524017,422.248077 408.291473,421.395844 
	C403.329590,417.965210 401.696350,414.191589 403.382080,410.124573 
	C405.186707,405.770691 409.851349,403.584381 415.467896,404.460114 
	C421.350281,405.377289 422.488525,407.559784 419.763702,412.815491 
	C417.294525,412.788788 417.013672,410.200928 415.475739,409.086212 
	C414.041901,408.046997 412.572205,407.092957 411.075958,408.743103 
	C409.589691,410.382263 410.437195,411.895813 411.890381,413.000854 
	C413.341614,414.104431 414.962158,414.985504 416.823914,416.158051 
z"/>
<path fill="#000000" opacity="1.000000" stroke="none" 
	d="
M354.987610,404.590332 
	C356.399902,407.498016 357.888824,405.647003 359.249878,405.095703 
	C361.514526,404.178314 363.895935,403.616272 365.725800,405.581238 
	C367.160828,407.122192 366.351746,408.967407 365.325073,410.620331 
	C363.830566,413.026428 362.019318,413.495697 359.450836,412.185883 
	C356.123749,410.489227 355.267609,412.450134 355.431427,415.336334 
	C355.619354,418.646088 356.303619,421.973022 356.090668,425.248199 
	C355.847076,428.994141 359.944458,428.957489 360.972778,431.448059 
	C357.983276,433.348297 347.840088,433.341156 344.141357,431.540894 
	C348.584625,424.759888 347.828003,417.597870 345.504791,410.415802 
	C344.973480,408.773315 344.537689,407.352173 346.446594,406.789093 
	C349.226776,405.968994 351.557922,403.596497 354.987610,404.590332 
z"/>
<path fill="#000000" opacity="1.000000" stroke="none" 
	d="
M336.914337,301.133392 
	C331.297638,296.921112 329.763336,292.904755 331.942657,288.753571 
	C334.095856,284.652100 340.354858,282.553711 345.592285,284.035828 
	C348.546753,284.871887 349.538055,286.799896 349.266785,289.654877 
	C349.172333,290.648956 349.188324,291.713684 348.010254,292.118988 
	C346.857574,292.515625 346.130646,291.846191 345.520844,290.987030 
	C344.177917,289.095032 343.035767,286.835510 340.086792,287.569794 
	C339.259125,287.775879 338.556854,288.435974 338.538177,289.338562 
	C338.473206,292.481964 341.215607,293.286438 343.211212,294.601929 
	C346.258240,296.610504 349.716064,298.145721 350.260162,302.411652 
	C351.093842,308.948059 345.132294,313.656738 337.114319,312.760071 
	C331.123566,312.090088 329.464661,309.567688 331.260101,303.764069 
	C333.630157,303.493225 333.996857,305.798431 335.270508,306.919067 
	C336.749054,308.220001 338.078308,309.952911 340.395111,309.289642 
	C341.562073,308.955536 342.448151,308.067719 342.493683,306.761810 
	C342.569580,304.585999 340.870789,303.634857 339.367554,302.600586 
	C338.683899,302.130219 337.942688,301.743408 336.914337,301.133392 
z"/>
<path fill="#000000" opacity="1.000000" stroke="none" 
	d="
M425.674347,409.515991 
	C425.884827,404.063751 430.983368,403.411560 433.830078,400.572937 
	C436.389313,404.328064 441.395599,403.963074 444.321655,406.623871 
	C446.197113,408.329285 444.281616,410.504486 441.777649,410.261902 
	C436.632477,409.763519 435.911133,412.650879 436.307983,416.679291 
	C436.340454,417.008606 436.311432,417.343933 436.310730,417.676483 
	C436.291962,426.398621 436.291931,426.398621 445.051392,426.992676 
	C443.666077,431.652618 440.323242,433.091461 436.202393,433.268158 
	C431.414978,433.473450 428.198700,431.012238 427.837006,426.622742 
	C427.524017,422.824951 427.767761,418.981476 427.762115,415.158173 
	C427.759155,413.165161 427.960876,411.099152 425.674347,409.515991 
z"/>
<path fill="#000000" opacity="1.000000" stroke="none" 
	d="
M446.956238,367.045929 
	C444.760864,371.787720 440.859039,373.757996 436.618744,372.763672 
	C432.053040,371.693024 429.929596,368.808319 430.013702,364.169434 
	C430.061829,361.515198 429.933136,358.854523 430.066040,356.205872 
	C430.221619,353.105255 431.512756,349.731537 426.659271,348.343689 
	C429.794983,344.410065 433.309540,342.370972 436.867493,339.502930 
	C438.112854,343.596741 440.489441,345.411133 444.491486,344.794830 
	C445.920746,344.574738 446.992462,345.452881 447.133606,347.111816 
	C447.294556,349.003723 446.296753,349.781952 444.582245,350.092865 
	C442.480469,350.474030 439.600037,349.416443 439.030273,352.851715 
	C438.353607,356.931610 437.386414,361.127228 439.246216,365.045380 
	C440.900879,368.531342 444.529724,364.999817 446.956238,367.045929 
z"/>
</svg>