<svg version="1.1" id="Layer_1" xmlns="http://www.w3.org/2000/svg" xmlns:xlink="http://www.w3.org/1999/xlink" x="0px" y="0px"
	 width="100%" viewBox="0 0 1200 401" enable-background="new 0 0 1200 401" xml:space="preserve">
<path fill="#FEFEFE" opacity="1.000000" stroke="none" 
	d="
M778.000000,402.000000 
	C518.666687,402.000000 259.833344,402.000000 1.000000,402.000000 
	C1.000000,268.333344 1.000000,134.666672 1.000000,1.000000 
	C401.000000,1.000000 801.000000,1.000000 1201.000000,1.000000 
	C1201.000000,134.666672 1201.000000,268.333344 1201.000000,402.000000 
	C1060.166626,402.000000 919.333313,402.000000 778.000000,402.000000 
M540.719238,300.424896 
	C541.470154,300.336334 542.221008,300.247772 543.778320,300.404144 
	C544.794678,299.607300 545.810974,298.810455 547.066223,297.101471 
	C547.066223,279.192078 547.066223,261.282715 547.066223,242.875092 
	C556.902893,242.875092 566.130432,242.875092 575.286316,242.875092 
	C575.286316,239.652054 575.286316,236.949905 575.286316,234.355301 
	C552.657532,234.355301 530.457947,234.355301 508.247803,234.355301 
	C508.247803,237.371155 508.247803,239.970093 508.247803,242.996628 
	C516.595520,242.996628 524.710876,242.901810 532.819824,243.086853 
	C534.225220,243.118942 535.603577,244.335373 536.794922,245.922775 
	C536.784607,262.799683 536.776855,279.676605 536.760925,296.553528 
	C536.758911,298.744965 536.378662,301.238129 540.719238,300.424896 
M513.956299,166.767029 
	C517.173279,167.398926 520.390198,168.030838 524.135681,168.766556 
	C524.135681,158.187820 524.135681,148.761276 524.135681,138.983032 
	C529.120117,138.983032 533.771790,138.688461 538.353760,139.124908 
	C540.243774,139.304932 542.690247,140.611465 543.669067,142.168930 
	C547.647278,148.499268 551.122070,155.144241 554.843872,161.637985 
	C559.069580,169.010880 560.822693,169.678528 569.758606,167.368729 
	C564.099731,157.734589 558.480957,148.168686 552.759277,138.427567 
	C554.007263,137.834381 554.899292,137.417053 555.785583,136.988083 
	C564.598022,132.722839 568.501770,125.883087 567.216919,116.963287 
	C566.107666,109.262398 559.266174,102.585419 550.086792,102.084732 
	C538.169434,101.434700 526.189758,101.925949 514.096619,101.925949 
	C514.096619,104.434814 514.096619,106.734047 513.930359,109.951004 
	C513.989441,128.626663 514.048584,147.302338 513.956299,166.767029 
M990.848938,168.165497 
	C993.129333,168.165497 995.409729,168.165497 997.844971,168.165497 
	C997.844971,145.772003 997.844971,123.882591 997.844971,102.019508 
	C989.224609,101.356392 989.290222,101.404510 984.543701,107.874359 
	C979.489502,114.763695 974.294312,121.549561 968.796814,128.864883 
	C963.129272,121.102013 957.632690,114.419296 953.128052,107.124077 
	C949.787231,101.713554 945.665039,100.861115 940.260742,102.150246 
	C940.260742,124.152954 940.260742,146.025345 940.260742,167.856689 
	C943.789124,167.856689 946.879395,167.856689 950.687073,167.856689 
	C950.687073,152.102036 950.687073,136.662613 950.687073,119.781303 
	C956.239441,127.370216 960.819397,133.669785 965.444031,139.936447 
	C968.339783,143.860336 969.574646,143.882614 972.459961,140.007477 
	C976.933105,133.999634 981.315430,127.923820 985.839905,121.955421 
	C986.095276,121.618553 987.288330,121.992477 987.839966,122.946800 
	C987.838074,136.755478 987.780334,150.564758 987.932190,164.371719 
	C987.945435,165.577927 989.336060,166.768997 990.848938,168.165497 
M637.500732,291.412781 
	C631.216431,291.412781 624.932068,291.412781 618.496460,291.412781 
	C618.496460,294.720245 618.496460,297.429810 618.496460,300.277039 
	C779.377869,300.277039 939.905640,300.277039 1100.555908,300.277039 
	C1100.555908,297.285980 1100.555908,294.577362 1100.555908,291.412933 
	C946.300781,291.412933 792.400574,291.412933 637.500732,291.412781 
M435.530609,232.871048 
	C429.326263,234.417816 422.685638,235.049728 417.029968,237.746964 
	C410.225922,240.991867 409.183533,247.991943 409.847900,255.041428 
	C410.401001,260.910095 414.272369,264.155212 419.208374,266.341431 
	C421.781677,267.481171 424.514343,268.324036 427.244293,269.034882 
	C434.325653,270.878784 441.496552,272.396149 448.528931,274.403778 
	C452.206573,275.453705 455.112000,277.716980 455.072968,282.179962 
	C455.034515,286.575836 452.745758,290.022827 448.765564,290.753662 
	C443.014832,291.809570 436.949524,292.364990 431.171661,291.732971 
	C424.865967,291.043182 419.840179,287.041687 418.466553,280.582428 
	C417.646851,276.727966 415.969788,276.137390 412.774872,276.432190 
	C410.986969,276.597168 409.171326,276.461884 407.044586,276.461884 
	C406.726501,282.755585 408.812958,287.675476 412.516266,291.931122 
	C422.475677,303.375824 448.283417,305.332153 459.949036,295.606476 
	C468.919922,288.127411 468.377899,274.426392 458.248413,268.543701 
	C453.203186,265.613678 447.147308,264.347748 441.459076,262.624573 
	C436.695343,261.181519 431.738342,260.371948 426.985046,258.900360 
	C423.071899,257.688812 420.194733,255.263504 420.650238,250.543991 
	C421.082794,246.062378 423.883514,243.400208 428.009064,242.971588 
	C433.213379,242.430862 438.552612,242.315292 443.751556,242.835922 
	C449.233856,243.384933 452.487244,247.003937 454.026184,252.379211 
	C454.377228,253.605377 456.167725,254.973724 457.503113,255.241180 
	C459.834106,255.708099 462.326080,255.371262 465.017700,255.371262 
	C464.840057,247.065536 461.986359,240.529327 455.128204,237.469147 
	C449.378937,234.903778 442.741760,234.328445 435.530609,232.871048 
M241.087021,234.124557 
	C229.664825,234.124557 218.242630,234.124557 206.658081,234.124557 
	C206.658081,256.449066 206.658081,278.301117 206.658081,300.253601 
	C210.136154,300.253601 213.229446,300.253601 216.947357,300.253601 
	C216.947357,290.613403 216.947357,281.233643 216.947357,271.724487 
	C222.232056,271.724487 226.906754,271.489807 231.534729,271.851990 
	C233.150330,271.978394 235.255539,273.202545 236.100006,274.567139 
	C239.948120,280.785553 243.454117,287.217285 247.031845,293.601044 
	C251.328033,301.266754 253.177887,302.053253 262.170502,299.683105 
	C256.546417,290.078308 250.954300,280.528137 245.341293,270.942261 
	C255.348343,266.234589 259.323639,261.584869 259.972656,254.220840 
	C260.886475,243.851273 254.664703,236.945175 241.087021,234.124557 
M430.520386,159.092377 
	C427.586273,159.092377 424.652161,159.092377 421.877319,159.092377 
	C421.877319,151.991623 421.877319,145.587814 421.877319,138.699036 
	C434.600342,138.699036 447.001190,138.699036 459.540436,138.699036 
	C459.540436,135.614365 459.540436,133.033173 459.540436,129.898727 
	C446.887238,129.898727 434.492615,129.898727 421.950317,129.898727 
	C421.950317,123.136688 421.950317,116.937027 421.950317,110.346054 
	C435.448334,110.346054 448.559143,110.346054 461.874237,110.346054 
	C461.874237,107.337761 461.874237,104.728622 461.874237,101.929169 
	C444.918518,101.929169 428.153046,101.929169 411.185425,101.929169 
	C411.185425,124.041649 411.185425,145.925720 411.185425,167.939560 
	C428.225189,167.939560 444.963776,167.939560 461.741028,167.939560 
	C461.741028,164.900497 461.741028,162.176727 461.741028,159.092850 
	C451.443939,159.092850 441.481140,159.092850 430.520386,159.092377 
M670.485474,168.231720 
	C671.942749,168.165939 673.400024,168.100159 675.088501,168.023926 
	C675.088501,145.831985 675.088501,123.959259 675.088501,102.122513 
	C671.596680,102.122513 668.405334,102.122513 664.814087,102.122513 
	C664.814087,111.473145 664.814087,120.410881 664.814087,129.417114 
	C652.682312,129.417114 640.967773,129.417114 628.907166,129.417114 
	C628.907166,120.127045 628.907166,111.182915 628.907166,102.084885 
	C625.168823,102.084885 621.790833,102.084885 618.433472,102.084885 
	C618.433472,124.231079 618.433472,145.990829 618.433472,167.945648 
	C621.980652,167.945648 625.238281,167.945648 629.067871,167.945648 
	C629.067871,158.121140 629.067871,148.573349 629.067871,139.277786 
	C641.368469,139.277786 653.091919,139.277786 665.261719,139.277786 
	C665.261719,149.083481 665.261719,158.488251 665.261719,168.232971 
	C667.033936,168.232971 668.348022,168.232971 670.485474,168.231720 
M1100.690674,167.219727 
	C1100.690674,164.631638 1100.690674,162.043564 1100.690674,158.931580 
	C1087.001953,158.931580 1073.786377,158.931580 1060.515625,158.931580 
	C1060.515625,151.993561 1060.515625,145.603516 1060.515625,138.790771 
	C1073.265625,138.790771 1085.688110,138.790771 1098.341797,138.790771 
	C1098.341797,135.654968 1098.341797,132.951935 1098.341797,129.747711 
	C1085.556030,129.747711 1073.143188,129.747711 1060.472900,129.747711 
	C1060.472900,123.168381 1060.472900,117.093414 1060.472900,110.455139 
	C1073.963745,110.455139 1087.205811,110.455139 1100.666260,110.455139 
	C1100.666260,107.307068 1100.666260,104.722153 1100.666260,101.989922 
	C1083.670410,101.989922 1066.909790,101.989922 1050.244873,101.989922 
	C1050.244873,124.160034 1050.244873,146.035278 1050.244873,167.913895 
	C1067.143799,167.913895 1083.605713,167.913895 1100.690674,167.219727 
M234.503891,138.872269 
	C242.102661,138.872269 249.701447,138.872269 257.445679,138.872269 
	C257.445679,135.599960 257.445679,133.026230 257.445679,129.769867 
	C244.609604,129.769867 232.070053,129.769867 219.533752,129.769867 
	C219.533752,123.007294 219.533752,116.935547 219.533752,110.338242 
	C233.124329,110.338242 246.372421,110.338242 259.617065,110.338242 
	C259.617065,107.217560 259.617065,104.638130 259.617065,102.062500 
	C242.571503,102.062500 225.842087,102.062500 209.201935,102.062500 
	C209.201935,124.184082 209.201935,145.946228 209.201935,167.784607 
	C226.218826,167.784607 242.911713,167.784607 259.688721,167.784607 
	C259.688721,164.780991 259.688721,162.184357 259.688721,159.103241 
	C246.201874,159.103241 232.953659,159.103241 219.449280,159.103241 
	C219.335114,157.180099 219.183182,155.723633 219.174026,154.266266 
	C219.142883,149.310486 219.162125,144.354385 219.162125,138.872253 
	C224.269608,138.872253 228.887695,138.872253 234.503891,138.872269 
M745.104187,166.395462 
	C752.349365,169.203720 759.782593,169.363464 767.211182,167.517014 
	C779.417908,164.482910 787.192627,155.796539 788.159668,143.241440 
	C788.861633,134.127594 788.536011,124.933296 788.630127,115.774475 
	C788.677246,111.187828 788.638367,106.600296 788.638367,102.046890 
	C784.653381,102.046890 781.423218,102.046890 778.266907,102.046890 
	C778.134644,102.720734 778.015747,103.045197 778.015259,103.369858 
	C777.996948,115.369011 777.995789,127.368195 777.979187,139.367355 
	C777.963013,151.052109 769.580811,159.603043 757.992920,159.772690 
	C746.261963,159.944427 737.636108,151.279648 737.600037,139.239014 
	C737.567139,128.239731 737.590881,117.240280 737.557739,106.241013 
	C737.553467,104.813133 737.358643,103.385826 737.248169,101.905930 
	C733.679077,101.905930 730.561829,101.905930 727.029175,101.905930 
	C727.029175,114.564812 727.048645,127.023209 727.023682,139.481506 
	C726.998352,152.161560 732.762268,161.038940 745.104187,166.395462 
M308.086578,286.252930 
	C311.966431,293.146698 317.855988,297.471283 325.362854,299.683990 
	C344.568420,305.345032 368.074738,294.874481 366.342316,269.628479 
	C365.898590,263.162140 366.275665,256.639496 366.275635,250.142700 
	C366.275635,244.871765 366.275635,239.600815 366.275635,234.280807 
	C362.513062,234.280807 359.432281,234.280807 355.897003,234.280807 
	C355.897003,236.578812 355.896454,238.539566 355.897095,240.500320 
	C355.900391,250.828537 355.988403,261.157593 355.885590,271.484741 
	C355.764679,283.631042 347.700378,291.982300 336.203705,292.074799 
	C323.904541,292.173737 315.492462,284.105255 315.257019,271.611725 
	C315.056152,260.954071 315.210083,250.289703 315.207245,239.628311 
	C315.206787,237.862640 315.207184,236.096985 315.207184,234.296951 
	C311.440552,234.296951 308.381836,234.296951 305.090973,234.296951 
	C305.090973,248.597351 304.935028,262.561707 305.213898,276.517365 
	C305.274445,279.547516 306.894257,282.546570 308.086578,286.252930 
M368.321136,101.900551 
	C366.996094,101.841393 365.644745,101.929054 364.350739,101.696915 
	C359.493011,100.825470 356.814209,102.576973 355.273560,107.489708 
	C353.338837,113.659073 350.517639,119.552307 348.045074,125.550720 
	C344.072754,135.187622 340.072601,144.813049 335.700317,155.370361 
	C334.656799,153.114014 334.010101,151.838943 333.466522,150.521347 
	C327.630859,136.376617 321.820618,122.221413 315.983765,108.077179 
	C313.094788,101.076469 310.032593,99.867149 302.338501,102.694130 
	C311.277069,123.469154 320.285767,144.208572 329.069733,165.042725 
	C330.346069,168.069916 332.276093,168.431717 334.918854,168.219437 
	C337.555939,168.007629 340.392578,169.106339 341.963348,165.370804 
	C350.795746,144.365646 359.838470,123.448944 368.321136,101.900551 
M108.580429,233.964523 
	C106.157074,233.964523 103.733727,233.964523 101.191727,233.964523 
	C101.191727,237.311356 101.191727,239.906906 101.191727,243.112915 
	C110.761124,243.112915 120.131523,243.112915 129.863800,243.112915 
	C129.863800,262.474884 129.863800,281.227844 129.863800,300.115540 
	C133.448669,300.115540 136.642105,300.115540 140.185791,300.115540 
	C140.185791,280.957458 140.185791,262.206451 140.185791,242.883301 
	C149.913055,242.883301 159.297424,242.883301 168.612823,242.883301 
	C168.612823,239.707382 168.612823,237.112656 168.612823,233.964508 
	C148.742706,233.964508 129.150726,233.964508 108.580429,233.964523 
M852.523071,168.238358 
	C865.429199,168.238358 878.335327,168.238358 891.253052,168.238358 
	C891.253052,164.830231 891.253052,162.086182 891.253052,158.968781 
	C877.624268,158.968781 864.366821,158.968781 850.558472,158.968781 
	C850.558472,139.754913 850.558472,120.913399 850.558472,102.104668 
	C846.781738,102.104668 843.580872,102.104668 840.386108,102.104668 
	C840.386108,124.260544 840.386108,145.999435 840.386108,168.238174 
	C844.281555,168.238174 847.908813,168.238174 852.523071,168.238358 
M115.755905,168.214783 
	C130.553055,168.214783 145.350204,168.214783 160.437714,168.214783 
	C160.437714,165.068588 160.437714,162.336670 160.437714,158.953110 
	C146.715271,158.953110 133.183548,158.953110 119.277359,158.953110 
	C119.277359,139.560425 119.277359,120.814438 119.277359,101.960625 
	C115.774635,101.960625 112.673332,101.960625 109.528503,101.960625 
	C109.528503,124.107010 109.528503,145.983353 109.528503,168.213501 
	C111.534164,168.213501 113.180191,168.213501 115.755905,168.214783 
z"/>
<path fill="#0F3B5F" opacity="1.000000" stroke="none" 
	d="
M638.000549,291.412842 
	C792.400574,291.412933 946.300781,291.412933 1100.555908,291.412933 
	C1100.555908,294.577362 1100.555908,297.285980 1100.555908,300.277039 
	C939.905640,300.277039 779.377869,300.277039 618.496460,300.277039 
	C618.496460,297.429810 618.496460,294.720245 618.496460,291.412781 
	C624.932068,291.412781 631.216431,291.412781 638.000549,291.412842 
z"/>
<path fill="#0E375A" opacity="1.000000" stroke="none" 
	d="
M436.014160,232.871506 
	C442.741760,234.328445 449.378937,234.903778 455.128204,237.469147 
	C461.986359,240.529327 464.840057,247.065536 465.017700,255.371262 
	C462.326080,255.371262 459.834106,255.708099 457.503113,255.241180 
	C456.167725,254.973724 454.377228,253.605377 454.026184,252.379211 
	C452.487244,247.003937 449.233856,243.384933 443.751556,242.835922 
	C438.552612,242.315292 433.213379,242.430862 428.009064,242.971588 
	C423.883514,243.400208 421.082794,246.062378 420.650238,250.543991 
	C420.194733,255.263504 423.071899,257.688812 426.985046,258.900360 
	C431.738342,260.371948 436.695343,261.181519 441.459076,262.624573 
	C447.147308,264.347748 453.203186,265.613678 458.248413,268.543701 
	C468.377899,274.426392 468.919922,288.127411 459.949036,295.606476 
	C448.283417,305.332153 422.475677,303.375824 412.516266,291.931122 
	C408.812958,287.675476 406.726501,282.755585 407.044586,276.461884 
	C409.171326,276.461884 410.986969,276.597168 412.774872,276.432190 
	C415.969788,276.137390 417.646851,276.727966 418.466553,280.582428 
	C419.840179,287.041687 424.865967,291.043182 431.171661,291.732971 
	C436.949524,292.364990 443.014832,291.809570 448.765564,290.753662 
	C452.745758,290.022827 455.034515,286.575836 455.072968,282.179962 
	C455.112000,277.716980 452.206573,275.453705 448.528931,274.403778 
	C441.496552,272.396149 434.325653,270.878784 427.244293,269.034882 
	C424.514343,268.324036 421.781677,267.481171 419.208374,266.341431 
	C414.272369,264.155212 410.401001,260.910095 409.847900,255.041428 
	C409.183533,247.991943 410.225922,240.991867 417.029968,237.746964 
	C422.685638,235.049728 429.326263,234.417816 436.014160,232.871506 
z"/>
<path fill="#10395C" opacity="1.000000" stroke="none" 
	d="
M241.531036,234.184204 
	C254.664703,236.945175 260.886475,243.851273 259.972656,254.220840 
	C259.323639,261.584869 255.348343,266.234589 245.341293,270.942261 
	C250.954300,280.528137 256.546417,290.078308 262.170502,299.683105 
	C253.177887,302.053253 251.328033,301.266754 247.031845,293.601044 
	C243.454117,287.217285 239.948120,280.785553 236.100006,274.567139 
	C235.255539,273.202545 233.150330,271.978394 231.534729,271.851990 
	C226.906754,271.489807 222.232056,271.724487 216.947357,271.724487 
	C216.947357,281.233643 216.947357,290.613403 216.947357,300.253601 
	C213.229446,300.253601 210.136154,300.253601 206.658081,300.253601 
	C206.658081,278.301117 206.658081,256.449066 206.658081,234.124557 
	C218.242630,234.124557 229.664825,234.124557 241.531036,234.184204 
M219.517212,262.466187 
	C226.172745,262.413391 232.842468,262.609741 239.479416,262.231171 
	C245.065506,261.912537 248.949249,257.635620 249.033813,252.561172 
	C249.114548,247.715530 245.537796,243.543106 239.880463,243.211761 
	C232.310257,242.768356 224.694534,243.102051 216.785294,243.102051 
	C216.785294,249.050079 216.712601,254.519226 216.862549,259.982269 
	C216.885406,260.814911 217.939133,261.619293 219.517212,262.466187 
z"/>
<path fill="#0A3358" opacity="1.000000" stroke="none" 
	d="
M988.044983,122.035583 
	C987.288330,121.992477 986.095276,121.618553 985.839905,121.955421 
	C981.315430,127.923820 976.933105,133.999634 972.459961,140.007477 
	C969.574646,143.882614 968.339783,143.860336 965.444031,139.936447 
	C960.819397,133.669785 956.239441,127.370216 950.687073,119.781303 
	C950.687073,136.662613 950.687073,152.102036 950.687073,167.856689 
	C946.879395,167.856689 943.789124,167.856689 940.260742,167.856689 
	C940.260742,146.025345 940.260742,124.152954 940.260742,102.150246 
	C945.665039,100.861115 949.787231,101.713554 953.128052,107.124077 
	C957.632690,114.419296 963.129272,121.102013 968.796814,128.864883 
	C974.294312,121.549561 979.489502,114.763695 984.543701,107.874359 
	C989.290222,101.404510 989.224609,101.356392 997.844971,102.019508 
	C997.844971,123.882591 997.844971,145.772003 997.844971,168.165497 
	C995.409729,168.165497 993.129333,168.165497 990.460571,167.558701 
	C989.725281,160.726135 989.105591,154.500397 989.105103,148.274612 
	C989.104553,141.476349 989.838867,134.679474 989.897644,127.878906 
	C989.914429,125.936607 988.696655,123.983650 988.044983,122.035583 
z"/>
<path fill="#0D365B" opacity="1.000000" stroke="none" 
	d="
M431.019379,159.092621 
	C441.481140,159.092850 451.443939,159.092850 461.741028,159.092850 
	C461.741028,162.176727 461.741028,164.900497 461.741028,167.939560 
	C444.963776,167.939560 428.225189,167.939560 411.185425,167.939560 
	C411.185425,145.925720 411.185425,124.041649 411.185425,101.929169 
	C428.153046,101.929169 444.918518,101.929169 461.874237,101.929169 
	C461.874237,104.728622 461.874237,107.337761 461.874237,110.346054 
	C448.559143,110.346054 435.448334,110.346054 421.950317,110.346054 
	C421.950317,116.937027 421.950317,123.136688 421.950317,129.898727 
	C434.492615,129.898727 446.887238,129.898727 459.540436,129.898727 
	C459.540436,133.033173 459.540436,135.614365 459.540436,138.699036 
	C447.001190,138.699036 434.600342,138.699036 421.877319,138.699036 
	C421.877319,145.587814 421.877319,151.991623 421.877319,159.092377 
	C424.652161,159.092377 427.586273,159.092377 431.019379,159.092621 
z"/>
<path fill="#0C365A" opacity="1.000000" stroke="none" 
	d="
M670.073730,168.232346 
	C668.348022,168.232971 667.033936,168.232971 665.261719,168.232971 
	C665.261719,158.488251 665.261719,149.083481 665.261719,139.277786 
	C653.091919,139.277786 641.368469,139.277786 629.067871,139.277786 
	C629.067871,148.573349 629.067871,158.121140 629.067871,167.945648 
	C625.238281,167.945648 621.980652,167.945648 618.433472,167.945648 
	C618.433472,145.990829 618.433472,124.231079 618.433472,102.084885 
	C621.790833,102.084885 625.168823,102.084885 628.907166,102.084885 
	C628.907166,111.182915 628.907166,120.127045 628.907166,129.417114 
	C640.967773,129.417114 652.682312,129.417114 664.814087,129.417114 
	C664.814087,120.410881 664.814087,111.473145 664.814087,102.122513 
	C668.405334,102.122513 671.596680,102.122513 675.088501,102.122513 
	C675.088501,123.959259 675.088501,145.831985 675.088501,168.023926 
	C673.400024,168.100159 671.942749,168.165939 670.073730,168.232346 
z"/>
<path fill="#0B355A" opacity="1.000000" stroke="none" 
	d="
M1100.379150,167.566803 
	C1083.605713,167.913895 1067.143799,167.913895 1050.244873,167.913895 
	C1050.244873,146.035278 1050.244873,124.160034 1050.244873,101.989922 
	C1066.909790,101.989922 1083.670410,101.989922 1100.666260,101.989922 
	C1100.666260,104.722153 1100.666260,107.307068 1100.666260,110.455139 
	C1087.205811,110.455139 1073.963745,110.455139 1060.472900,110.455139 
	C1060.472900,117.093414 1060.472900,123.168381 1060.472900,129.747711 
	C1073.143188,129.747711 1085.556030,129.747711 1098.341797,129.747711 
	C1098.341797,132.951935 1098.341797,135.654968 1098.341797,138.790771 
	C1085.688110,138.790771 1073.265625,138.790771 1060.515625,138.790771 
	C1060.515625,145.603516 1060.515625,151.993561 1060.515625,158.931580 
	C1073.786377,158.931580 1087.001953,158.931580 1100.690674,158.931580 
	C1100.690674,162.043564 1100.690674,164.631638 1100.379150,167.566803 
z"/>
<path fill="#0A3358" opacity="1.000000" stroke="none" 
	d="
M514.096619,109.033279 
	C514.096619,106.734047 514.096619,104.434814 514.096619,101.925949 
	C526.189758,101.925949 538.169434,101.434700 550.086792,102.084732 
	C559.266174,102.585419 566.107666,109.262398 567.216919,116.963287 
	C568.501770,125.883087 564.598022,132.722839 555.785583,136.988083 
	C554.899292,137.417053 554.007263,137.834381 552.759277,138.427567 
	C558.480957,148.168686 564.099731,157.734589 569.758606,167.368729 
	C560.822693,169.678528 559.069580,169.010880 554.843872,161.637985 
	C551.122070,155.144241 547.647278,148.499268 543.669067,142.168930 
	C542.690247,140.611465 540.243774,139.304932 538.353760,139.124908 
	C533.771790,138.688461 529.120117,138.983032 524.135681,138.983032 
	C524.135681,148.761276 524.135681,158.187820 524.135681,168.766556 
	C520.390198,168.030838 517.173279,167.398926 514.419922,166.281403 
	C515.255920,164.124176 515.912048,162.458969 515.950012,160.779770 
	C516.093750,154.421677 515.933716,148.056671 516.079590,141.698654 
	C516.300476,132.070892 516.791870,122.447609 516.861694,112.820206 
	C516.870728,111.564651 515.062927,110.295914 514.096619,109.033279 
M535.484253,110.338547 
	C531.727295,110.338547 527.970337,110.338547 524.307617,110.338547 
	C524.307617,117.347847 524.307617,123.616776 524.307617,129.917618 
	C532.073364,129.917618 539.554749,130.240051 546.992981,129.812378 
	C552.624512,129.488602 556.525208,125.106377 556.708008,120.131630 
	C556.880310,115.441185 553.211975,111.613670 547.404541,110.891960 
	C543.787903,110.442505 540.107544,110.505569 535.484253,110.338547 
z"/>
<path fill="#0B3559" opacity="1.000000" stroke="none" 
	d="
M234.004837,138.872253 
	C228.887695,138.872253 224.269608,138.872253 219.162125,138.872253 
	C219.162125,144.354385 219.142883,149.310486 219.174026,154.266266 
	C219.183182,155.723633 219.335114,157.180099 219.449280,159.103241 
	C232.953659,159.103241 246.201874,159.103241 259.688721,159.103241 
	C259.688721,162.184357 259.688721,164.780991 259.688721,167.784607 
	C242.911713,167.784607 226.218826,167.784607 209.201935,167.784607 
	C209.201935,145.946228 209.201935,124.184082 209.201935,102.062500 
	C225.842087,102.062500 242.571503,102.062500 259.617065,102.062500 
	C259.617065,104.638130 259.617065,107.217560 259.617065,110.338242 
	C246.372421,110.338242 233.124329,110.338242 219.533752,110.338242 
	C219.533752,116.935547 219.533752,123.007294 219.533752,129.769867 
	C232.070053,129.769867 244.609604,129.769867 257.445679,129.769867 
	C257.445679,133.026230 257.445679,135.599960 257.445679,138.872269 
	C249.701447,138.872269 242.102661,138.872269 234.004837,138.872253 
z"/>
<path fill="#0F385B" opacity="1.000000" stroke="none" 
	d="
M744.745728,166.251709 
	C732.762268,161.038940 726.998352,152.161560 727.023682,139.481506 
	C727.048645,127.023209 727.029175,114.564812 727.029175,101.905930 
	C730.561829,101.905930 733.679077,101.905930 737.248169,101.905930 
	C737.358643,103.385826 737.553467,104.813133 737.557739,106.241013 
	C737.590881,117.240280 737.567139,128.239731 737.600037,139.239014 
	C737.636108,151.279648 746.261963,159.944427 757.992920,159.772690 
	C769.580811,159.603043 777.963013,151.052109 777.979187,139.367355 
	C777.995789,127.368195 777.996948,115.369011 778.015259,103.369858 
	C778.015747,103.045197 778.134644,102.720734 778.266907,102.046890 
	C781.423218,102.046890 784.653381,102.046890 788.638367,102.046890 
	C788.638367,106.600296 788.677246,111.187828 788.630127,115.774475 
	C788.536011,124.933296 788.861633,134.127594 788.159668,143.241440 
	C787.192627,155.796539 779.417908,164.482910 767.211182,167.517014 
	C759.782593,169.363464 752.349365,169.203720 744.745728,166.251709 
z"/>
<path fill="#0B3559" opacity="1.000000" stroke="none" 
	d="
M307.941223,285.906433 
	C306.894257,282.546570 305.274445,279.547516 305.213898,276.517365 
	C304.935028,262.561707 305.090973,248.597351 305.090973,234.296951 
	C308.381836,234.296951 311.440552,234.296951 315.207184,234.296951 
	C315.207184,236.096985 315.206787,237.862640 315.207245,239.628311 
	C315.210083,250.289703 315.056152,260.954071 315.257019,271.611725 
	C315.492462,284.105255 323.904541,292.173737 336.203705,292.074799 
	C347.700378,291.982300 355.764679,283.631042 355.885590,271.484741 
	C355.988403,261.157593 355.900391,250.828537 355.897095,240.500320 
	C355.896454,238.539566 355.897003,236.578812 355.897003,234.280807 
	C359.432281,234.280807 362.513062,234.280807 366.275635,234.280807 
	C366.275635,239.600815 366.275635,244.871765 366.275635,250.142700 
	C366.275665,256.639496 365.898590,263.162140 366.342316,269.628479 
	C368.074738,294.874481 344.568420,305.345032 325.362854,299.683990 
	C317.855988,297.471283 311.966431,293.146698 307.941223,285.906433 
z"/>
<path fill="#0E365A" opacity="1.000000" stroke="none" 
	d="
M368.565308,102.201309 
	C359.838470,123.448944 350.795746,144.365646 341.963348,165.370804 
	C340.392578,169.106339 337.555939,168.007629 334.918854,168.219437 
	C332.276093,168.431717 330.346069,168.069916 329.069733,165.042725 
	C320.285767,144.208572 311.277069,123.469154 302.338501,102.694130 
	C310.032593,99.867149 313.094788,101.076469 315.983765,108.077179 
	C321.820618,122.221413 327.630859,136.376617 333.466522,150.521347 
	C334.010101,151.838943 334.656799,153.114014 335.700317,155.370361 
	C340.072601,144.813049 344.072754,135.187622 348.045074,125.550720 
	C350.517639,119.552307 353.338837,113.659073 355.273560,107.489708 
	C356.814209,102.576973 359.493011,100.825470 364.350739,101.696915 
	C365.644745,101.929054 366.996094,101.841393 368.565308,102.201309 
z"/>
<path fill="#0A3458" opacity="1.000000" stroke="none" 
	d="
M109.069580,233.964508 
	C129.150726,233.964508 148.742706,233.964508 168.612823,233.964508 
	C168.612823,237.112656 168.612823,239.707382 168.612823,242.883301 
	C159.297424,242.883301 149.913055,242.883301 140.185791,242.883301 
	C140.185791,262.206451 140.185791,280.957458 140.185791,300.115540 
	C136.642105,300.115540 133.448669,300.115540 129.863800,300.115540 
	C129.863800,281.227844 129.863800,262.474884 129.863800,243.112915 
	C120.131523,243.112915 110.761124,243.112915 101.191727,243.112915 
	C101.191727,239.906906 101.191727,237.311356 101.191727,233.964523 
	C103.733727,233.964523 106.157074,233.964523 109.069580,233.964508 
z"/>
<path fill="#133B5F" opacity="1.000000" stroke="none" 
	d="
M852.029602,168.238266 
	C847.908813,168.238174 844.281555,168.238174 840.386108,168.238174 
	C840.386108,145.999435 840.386108,124.260544 840.386108,102.104668 
	C843.580872,102.104668 846.781738,102.104668 850.558472,102.104668 
	C850.558472,120.913399 850.558472,139.754913 850.558472,158.968781 
	C864.366821,158.968781 877.624268,158.968781 891.253052,158.968781 
	C891.253052,162.086182 891.253052,164.830231 891.253052,168.238358 
	C878.335327,168.238358 865.429199,168.238358 852.029602,168.238266 
z"/>
<path fill="#0E375A" opacity="1.000000" stroke="none" 
	d="
M115.291061,168.214142 
	C113.180191,168.213501 111.534164,168.213501 109.528503,168.213501 
	C109.528503,145.983353 109.528503,124.107010 109.528503,101.960625 
	C112.673332,101.960625 115.774635,101.960625 119.277359,101.960625 
	C119.277359,120.814438 119.277359,139.560425 119.277359,158.953110 
	C133.183548,158.953110 146.715271,158.953110 160.437714,158.953110 
	C160.437714,162.336670 160.437714,165.068588 160.437714,168.214783 
	C145.350204,168.214783 130.553055,168.214783 115.291061,168.214142 
z"/>
<path fill="#093357" opacity="1.000000" stroke="none" 
	d="
M536.994385,245.004745 
	C535.603577,244.335373 534.225220,243.118942 532.819824,243.086853 
	C524.710876,242.901810 516.595520,242.996628 508.247803,242.996628 
	C508.247803,239.970093 508.247803,237.371155 508.247803,234.355301 
	C530.457947,234.355301 552.657532,234.355301 575.286316,234.355301 
	C575.286316,236.949905 575.286316,239.652054 575.286316,242.875092 
	C566.130432,242.875092 556.902893,242.875092 547.066223,242.875092 
	C547.066223,261.282715 547.066223,279.192078 546.618408,297.593384 
	C545.104370,298.776642 544.038147,299.467926 542.971924,300.159241 
	C542.221008,300.247772 541.470154,300.336334 540.307617,299.912262 
	C539.269104,297.933868 538.195496,296.496155 538.101318,294.996918 
	C537.846436,290.942291 537.928406,286.859741 538.019104,282.791443 
	C538.282654,270.969879 538.652588,259.150421 538.836365,247.327896 
	C538.848267,246.563248 537.636780,245.779572 536.994385,245.004745 
z"/>
<path fill="#0C2C48" opacity="1.000000" stroke="none" 
	d="
M514.013489,109.492142 
	C515.062927,110.295914 516.870728,111.564651 516.861694,112.820206 
	C516.791870,122.447609 516.300476,132.070892 516.079590,141.698654 
	C515.933716,148.056671 516.093750,154.421677 515.950012,160.779770 
	C515.912048,162.458969 515.255920,164.124176 514.495667,165.886902 
	C514.048584,147.302338 513.989441,128.626663 514.013489,109.492142 
z"/>
<path fill="#0C2C48" opacity="1.000000" stroke="none" 
	d="
M536.894653,245.463760 
	C537.636780,245.779572 538.848267,246.563248 538.836365,247.327896 
	C538.652588,259.150421 538.282654,270.969879 538.019104,282.791443 
	C537.928406,286.859741 537.846436,290.942291 538.101318,294.996918 
	C538.195496,296.496155 539.269104,297.933868 539.947510,299.780121 
	C536.378662,301.238129 536.758911,298.744965 536.760925,296.553528 
	C536.776855,279.676605 536.784607,262.799683 536.894653,245.463760 
z"/>
<path fill="#0C2C48" opacity="1.000000" stroke="none" 
	d="
M987.942505,122.491196 
	C988.696655,123.983650 989.914429,125.936607 989.897644,127.878906 
	C989.838867,134.679474 989.104553,141.476349 989.105103,148.274612 
	C989.105591,154.500397 989.725281,160.726135 990.079529,167.459503 
	C989.336060,166.768997 987.945435,165.577927 987.932190,164.371719 
	C987.780334,150.564758 987.838074,136.755478 987.942505,122.491196 
z"/>
<path fill="#0C2C48" opacity="1.000000" stroke="none" 
	d="
M543.375122,300.281677 
	C544.038147,299.467926 545.104370,298.776642 546.499023,298.049500 
	C545.810974,298.810455 544.794678,299.607300 543.375122,300.281677 
z"/>
<path fill="#F4F9F9" opacity="1.000000" stroke="none" 
	d="
M219.016632,262.451477 
	C217.939133,261.619293 216.885406,260.814911 216.862549,259.982269 
	C216.712601,254.519226 216.785294,249.050079 216.785294,243.102051 
	C224.694534,243.102051 232.310257,242.768356 239.880463,243.211761 
	C245.537796,243.543106 249.114548,247.715530 249.033813,252.561172 
	C248.949249,257.635620 245.065506,261.912537 239.479416,262.231171 
	C232.842468,262.609741 226.172745,262.413391 219.016632,262.451477 
z"/>
<path fill="#F4F8FB" opacity="1.000000" stroke="none" 
	d="
M535.970032,110.338585 
	C540.107544,110.505569 543.787903,110.442505 547.404541,110.891960 
	C553.211975,111.613670 556.880310,115.441185 556.708008,120.131630 
	C556.525208,125.106377 552.624512,129.488602 546.992981,129.812378 
	C539.554749,130.240051 532.073364,129.917618 524.307617,129.917618 
	C524.307617,123.616776 524.307617,117.347847 524.307617,110.338547 
	C527.970337,110.338547 531.727295,110.338547 535.970032,110.338585 
z"/>
</svg>