<svg id="Layer_1" data-name="Layer 1" xmlns="http://www.w3.org/2000/svg" viewBox="0 0 1000 1000"><defs><style>.cls-1{fill:#020202;}</style></defs><path class="cls-1" d="M431,454H415.13v-2h5.47V420.31H409.67v4.32h-2.59V416h2.59v1.43h27V416h2.59v8.63h-2.59v-4.32H425.78V452h5.46C431,452,431,454,431,454ZM481,454H467.78v-2h4V436.71H451.09V452h4v2H441.89v-2h4V419.74h-4v-2h13.23v2h-4v14.67h20.72V419.74h-4v-2H481v2H476.7V452H481Zm29.92,0h-25v-2h4V419.74h-4v-2h21.87v-1.44h2.59v8.63h-2.59v-4.6H494.82v14.1h10.36v-4h2.59v10.93h-2.59V437H494.82v14.67h13.52v-4.89h2.59V454Zm54.37-34.23h-4v21c0,5.75-2,9.78-6.62,12.08a17.28,17.28,0,0,1-7.77,2c-8,0-13.81-5.17-13.81-12.65V419.74h-4v-2h13.23v2h-4v20.71c0,6.62,4,10.93,10.07,10.93,6.33,0,10.65-4.6,10.65-11.22V419.45h-4v-2h11.22l-.87,2.31Zm34,34.81h-1.72l-21.29-29.06V452h4.31v2H569.33v-2h4.32V421.75l-1.44-2h-3.74v-2h8l20.14,27.62v-25.6h-4.31v-2h11.22v2h-4Zm21.29-.58H607.31v-2h4V419.74h-4v-2h13.23v2h-4V452h4Zm22.15.86H641l-13.81-35.38H624v-2H637.8v2h-5.18l10.65,27,10.64-27h-3.74v-2h9.5v2h-2.88l-14.1,35.38Zm45.17-.86h-25v-2h4V419.74h-4v-2h21.86v-1.44h2.59v8.63h-2.59v-4.6H671.75v14.1h10.36v-4h2.58v10.93h-2.58V437H671.75v14.67h13.52v-4.89h2.59V454ZM725,454h-4.6c-3.17,0-3.74-.29-5.76-3.16l-8.34-12.95H702v14.38h4v2H692.75v-2h4v-32.5h-4v-2H708c5.46,0,8.34,1.44,10.07,4.89a13.7,13.7,0,0,1,1.15,4.89c0,5.47-2.88,8.63-8.35,9.5l8.06,12.37c1.44,2,2.3,2.59,3.45,2.59h2v2Zm-23-19h5.17c4.32,0,7.2-3.16,7.2-7.48,0-4.6-2.59-7.48-7.2-7.48H702v15Zm29.91,19.57h-2.58v-9.79h2.58v4.32c3.46,2.3,4.9,2.88,7.2,2.88,4.31,0,7.48-2.3,7.48-5.76,0-3.16-2-5.46-8.06-8.63-6.9-3.74-9.2-6.33-9.2-10.93,0-5.47,4.6-9.49,10.93-9.49a14.12,14.12,0,0,1,6.61,1.43v-2h2.59v9.49h-2.59v-4c-2.87-2-4.31-2.3-6.32-2.3-3.74,0-6,2.3-6,5.75,0,2.88,1.73,4.31,8.63,8.34s8.92,6.33,8.92,10.93c0,5.76-4.6,10.07-10.93,10.07a13.29,13.29,0,0,1-8.63-2.59l-.58,2.31Zm37.69-.58H756.33v-2h4V419.74h-4v-2h13.23v2h-4V452h4Zm27.62,0H781.36v-2h5.46V420.31H775.89v4.32H773.3V416h2.59v1.43h27V416h2.59v8.63h-2.59v-4.32H791.71V452h5.47ZM832,454H818.76v-2h4V437.28l-11.5-17.54h-3.17v-2h13.52v2h-4.89l9.5,14.38,8.63-14.38H830v-2h10.93v2H838L827.39,437v15h4.31v2Zm23.59-18.12c0-10.36,8-19,17.84-19,9.49,0,17.54,8.63,17.54,19s-8.05,19-17.54,19C863.63,454.55,855.58,446.2,855.58,435.85Zm5.47,0c0,9.2,5.17,16.11,12.37,16.11s12.08-6.91,12.08-16.11-5.18-16.11-12.08-16.11C866.22,419.74,861.05,426.35,861.05,435.85ZM907.65,454H894.42v-2h4V419.74h-4v-2h21.86v-1.44h2.59v8.63h-2.59v-4.6H903.34v14.1h10.35v-4h2.59v10.93h-2.59V437H903.34v15.24h4l.29,1.73Z"/><path class="cls-1" d="M413.69,571.63h-6.9V545.45h6.9V557c8.92,6,12.66,7.48,19.28,7.48,11.51,0,19.56-6,19.56-15.25,0-8.34-5.75-14.38-21.29-22.44-18.41-9.49-24.45-17-24.45-28.76,0-14.39,12.08-25,28.48-25,7.19,0,12.66,1.44,17.26,4v-5.18h6.62v24.74h-6.62V486.19c-7.48-4.89-10.93-6.33-17-6.33-9.78,0-16.4,6-16.4,15,0,7.48,4.32,11.8,22.44,22.15s23.3,17,23.3,28.77c0,15.25-12.37,26.76-29,26.76-9.21,0-15.25-2-22.44-6.62l.28,5.75Zm116.23-1.15H495.4V565h10.93V526.18l-30.21-46.32h-8.34V474.4h36v5.46H490.51l25,38.26,23-38.26H525.32V474.4h29v5.46h-7.48L519,525.32V565h10.93Zm31.64,0V565H572.5V479.86H561.56V474.4h42.87c26.18,0,47.47,21.57,47.47,47.75,0,26.76-21,48.05-47.76,48.05H561.56Zm23.59-7.19H602.7c19.85,0,35.1-17.55,34.81-40.56,0-22.44-15.53-40.57-34.52-40.57H585.15v81.13Zm150.75,8.63h-4.6l-55.81-76.81V565h10.93v5.46H657.08V565H668V485.33l-4-5.47H653.91V474.4h21l53.51,73.07V479.86H717.49V474.4h29.34v5.46H735.9v92.06Zm86.88-1.44H756.62V565h10.93V479.86H756.62V474.4h58.11v-4h6.61v23h-6.61V481H780.21v37.4h27.33V507.48l6.61-.29V536l-6.61.29V525H780.21v38.84h35.67V551.21h6.62c.28,0,.28,19.27.28,19.27Zm71.64,0H859.89V565h10.94V526.18l-30.21-46.32h-8.34V474.4h36v5.46H855l25,38.26,23-38.26H889.81V474.4h29.06v5.46h-7.48l-27.91,45.46V565h10.94v5.46Z"/><path class="cls-1" d="M224.68,543.44h21.58v-3.16H224.68Zm0,8.92h21.58v-3.17H224.68Zm0-17.84h21.58v-3.16H224.68Zm-15.24,5.76H187.86v3.16h21.58Zm0,8.91H187.86v3.17h21.58Zm0-17.83H187.86v3.16h21.58Zm33.94-57c-8.63-.58-17.54-.58-26.46-.58-8.63,0-17.55.29-26.18.58v43.44H107.88a127.27,127.27,0,0,0,24.17,56.38,9.15,9.15,0,0,1,7.48-3.74H191v45.17a99.09,99.09,0,0,0,26.18,3.45v0a97.5,97.5,0,0,0,26.17-3.45V570.48h51.5a9.15,9.15,0,0,1,7.48,3.74,130.65,130.65,0,0,0,24.17-56.38H243.38V474.4ZM202,487.92l11.22,5.18,4-11.51,4,11.79,10.93-5.46-5.46,11.22,11.51,4-11.8,4,5.47,10.93L220.66,513l-4,11.5-4.32-11.79L202,518.41l5.18-11.22-11.51-4,11.79-4c-.28-.29-5.46-11.22-5.46-11.22Zm-39.42,71.63-10.93-5.47-4,11.8-4-11.51-11.22,5.18,5.46-10.93-11.79-4,11.51-4-5.47-11.22L143,534.81l4-11.8,4,11.51,11.22-5.18-5.47,10.94,11.8,4.31-11.51,4Zm17.84-.86h-4.89v-3.45h4.89Zm0-9.5h-4.89v-3.45h4.89Zm0-9.49h-4.89v-3.45h4.89v3.45Zm0-9.78h-4.89v-3.45h4.89ZM183,558.69V524.17h23.3a8.48,8.48,0,0,1,8.63,8.63v28.76a8.58,8.58,0,0,0-6.61-3.16C207.71,558.69,189.87,558.69,183,558.69Zm49.19,44.88-11.22-5.18-4,11.51-4.32-11.8L202,603.57l5.46-11.22-11.5-4L207.71,584,202,573.07l11.22,5.18,4-11.51,4.31,11.8,10.93-5.47-5.18,11.22,11.51,4L227,592.63Zm39.13-74.51,11.22,5.17,4-11.5,4.31,11.79,10.93-5.46-5.46,11.22,11.51,4-11.8,4,5.47,10.93-11.22-5.18-4,11.51-3.74-11.51-10.93,5.47L277,548.33l-11.5-4L277.33,540c-.57,0-6-10.93-6-10.93Zm-17.55-2.59h4.89v3.45h-4.89Zm0,9.49h4.89v3.45h-4.89Zm0,9.49h4.89v3.46h-4.89Zm0,9.79h4.89v3.45h-4.89Zm-2.59-31.07v34.52h-25a8.16,8.16,0,0,0-6.61,3.16V533.08a8.48,8.48,0,0,1,8.63-8.63h1.44c-.29-.28,21.57-.28,21.57-.28Zm42.58-146.72c-21.29-4.61-49.48-8.92-76.81-8.92-40.85,0-83.72,10.07-102.71,15.25-3.74.86-6.61,1.72-8.34,2.3v92.63c12.37-2,63-9.78,111-9.78s98.67,7.77,111,9.78V385.79c-1.72-.58-4.31-1.15-8.34-2.3-6-1.44-15.25-3.74-25.89-6Zm-115.94,9.78c1.73-.29-2-3.17.29-3.17,1.44,0,6.62,0,10.36,2,.86.28,1.15-1.15,2.59-2,0,0,.57-.29.86,0,1.44.87,2,2.3,2.88,2,3.74-1.73,8.91-1.73,10.35-2,2.59-.29-1.15,2.59.29,3.17,8.63,2,15,9.2,15,18.12a20.08,20.08,0,0,1-1.44,7.19c-.57,1.15-1.72-2.3-2.3-.28a23,23,0,0,1-3.16,9.78c-1.73,3.45-4.9-3.74-5.76-1.73-1.72,3.45-5.46,4.6-8.34,5.18-.29,0-.58,0-.29-.29a3.17,3.17,0,0,0,.86-2,.9.9,0,0,1,.29-.58,6.79,6.79,0,0,0,4-5.18,36,36,0,0,1,2.59-7.19c2.3-4-.58-9.2.29-10.35a5.69,5.69,0,0,0,2.59-4.9,6.08,6.08,0,0,0-6-6,5.62,5.62,0,0,0-4.31,2l-.29.28a8.1,8.1,0,0,0-1.44,1.73,1.55,1.55,0,0,0,.58,2.3c4,1.15,6.61,10.07,4.89,13-.86,1.44-2.88,6.33-2.88,7.48a3.19,3.19,0,0,1-3.16,3.16,3.55,3.55,0,0,1-3.17-2c1.15-.58,3.45-2.3,3.45-3.74l-.57-4.89a3.4,3.4,0,0,0,3.16-3.17c.29,0,.29-.28.58-.28.57-.58,1.15-2.31-.29-2a59.78,59.78,0,0,0-6.62.87.61.61,0,0,0-.57.57c0,.29,1.15,6.33,1.44,7.77,0,.29,0,.29-.29.29-.86,0-2.59-.29-2.88-.29a11.79,11.79,0,0,0-2.87.29.28.28,0,0,1-.29-.29c.29-1.44,1.72-7.48,1.72-7.48v-.58c-.28-.57-6.32-1.15-7.19-1.15a1.06,1.06,0,0,0-.86.29c-.58.86.58,1.73,1.15,2a3.41,3.41,0,0,0,3.17,3.17c0,.29-.58,4.89-.58,4.89,0,1.73,2.3,2.88,3.74,3.74l.29.29a3.55,3.55,0,0,1-3.17,2,3.19,3.19,0,0,1-3.16-3.16c0-1.15-2.3-6.33-2.88-7.77-1.72-3.17.86-12.08,5.18-13a1.38,1.38,0,0,0,.58-2.3c-1.73-1.73-3.74-4-6.33-4a6.08,6.08,0,0,0-6.05,6c0,3.74,2.88,4.32,2.59,5.47-1.15,3.45-1.15,7.19.29,9.78,1.15,1.73,2,4.89,2.59,6.91a7.39,7.39,0,0,0,3.45,5.17c.87.58.58,1.16.87,2,.28.29.57.57.57.86.29.29,0,.29-.29.29-2.87-.29-6.9-1.44-8.63-5.18-.86-2-4,4.89-5.75,1.73a26.69,26.69,0,0,1-3.45-9.78c-.58-2-1.73,1.43-2.3.28a18.4,18.4,0,0,1,14.09-25.31Zm24.74,6v-.58a2.26,2.26,0,0,1,1.44-.57,2.58,2.58,0,0,1,2.59,2.59,2.62,2.62,0,0,1-.86,2c-.29.29-.58,0-.58-.29A8.91,8.91,0,0,0,202.53,393.27Zm-6,29.63c-.57,1.73-2.88,1.15-4.31,2h-.58c-1.15-1.15-3.45-.57-4.31-2.3,0,0,0-.57.28-.57a6.48,6.48,0,0,0,4.32-2.3.39.39,0,0,1,.57,0,6.07,6.07,0,0,0,3.74,2c.29.57.58.86.29,1.15ZM178.94,397a.39.39,0,0,1-.57,0,2.61,2.61,0,0,1-.87-2,2.58,2.58,0,0,1,2.59-2.58,2,2,0,0,1,1.73.86.39.39,0,0,1,0,.57A6.29,6.29,0,0,0,178.94,397ZM155.35,431a5.49,5.49,0,0,0-3.74,1.43c-.86.58-1.15-1.15,0-4.31.87-2.59-4.31-4-5.46-2.88-1.73,1.44-6,4-10.36-.57-.86-.87,2-.58,2-1.44.29-1.15,1.44-1.73,1.73-2.3a.71.71,0,0,0-.29-1.15,4.42,4.42,0,0,1-2.59-5.18c0-.29-2.3-.58-1.44-1.15,4-3.74,8.35-1.44,10.07-.29.29,0,.87.29.87-.29,0-1.15-.58-2,2-4,.58-.28-1.44-2,0-2,8.34,2,4.6,10.64,6.33,12.37,3.16,2.88,10.93,5.18,18.12,6.62a16.15,16.15,0,0,1,3.46,1.15c5.75,2.87,9.49,2.59,12.65,1.44,1.15-.29.87.86.58,1.15-11.51,10.93-20.43,8.34-23.59,6.33-2.3-1.44-6.62-1.44-8.63,1.43-.29.29-.86.58-1.15-.28-.58-2,0-3.46.57-5.18.29-.58-.57-.86-1.15-.86Zm110.76,10.35c-1.44,1.44-4.31,2.88-8.63,2.59a5.13,5.13,0,0,0-3.16.86c-.58.58-.58.87-.58,1.16a2.72,2.72,0,0,0,.58,2.58c.57.58.28,1.16-.58,1.16-.86.28-1.73.28-3.45-.58-.86-.29-1.15,0-1.15.58-.29.86.29,2,1.44,2.87.57.58.57,1.15-.58,1.44-1.72.58-3.16-.29-5.46-1.44-1.44-.86-2.59-.86-3.46.29-.57.57-.57,1.15-.28,1.44.86.86,1.43,2.87-.87,5.75-.86.86-1.72-1.72-2.3-1.44-3.16,1.44-5.75-.57-6.9-1.72-.29-.29-.58-.29-1.15,0-1.73,1.15-5.18,2.87-6.33-.29-.29-.58-2,.57-2-.29,0-5.18,4.61-6,6.33-6.33.58,0,.58-.28.29-.86-.86-1.15-1.73-2.59-1.15-4,.29-1.15-2.59-1.44-1.44-2,6-2.88,9.21,2.59,10.36,3.16,1.72.87,9.49-1.44,10.35-5.75.29-.86-1.72-1.15-3.74-1.73-.28,0-.57-.57,0-1.15,4.61-3.45,8.35-8.05,17-8.92a1.31,1.31,0,0,1,1.44,1.15,13.77,13.77,0,0,0,1.15,3.74,12.24,12.24,0,0,0,4.31,5.47,2.17,2.17,0,0,1,0,2.3Zm35.39-2.87c.86.28.86.86.28,1.43s-1.43.87-3.45.87c-.86,0-.86.57-.86.86,0,.86,1.15,1.73,2.59,1.73.86.28.86.86.29,1.43-1.15,1.16-2.88,1.16-5.76,1.16-2.59,0-4.6,3.16-3.16,4.31,1.15.86,3.16,2.88,1.44,8.34-.58,1.73-1.44-1.44-2.31-.86-2.3,1.44-4-.29-5.17-1.44a.6.6,0,0,0-1.15,0c-.87,1.44-3.17,4.32-7.77,1.73-.86-.58-3.17,1.44-3.17.57a6.35,6.35,0,0,1,2.59-6.9c.29,0,.87-.86-.28-.86-1.44,0-3.46-.58-3.74-2.59,0-.29-2-.29-2-.87.58-2.59,6.33-4.6,10.36-2,3.45,2.3,7.77-5.47,4.6-8.92-2.3-2.59-15.25,4.6-19.56-4.6-1.73-3.74.57-6.91-1.44-7.19-1.73-.29-10.07-2-19,5.17-15.24,12.38-31.93,5.47-36,2.88a.63.63,0,0,0-.86.86,5.45,5.45,0,0,1-.29,4.32c-1.72,2.3-7.19,4.89-8.05,5.18-6.33,2-5.76,6.9-5.18,8.92.29.57,0,1.15-.87.86-2-.29-6-1.44-7.48-5.47-.28-.57-.57-.57-1.15,0a3.83,3.83,0,0,0-.86,5.18c.29.58,0,.86-.57.86-2.31.29-3.74-2.3-5.76-2-1.15,0-2.59,1.15-3.45,1.73a1.26,1.26,0,0,0-.29,1.44c2.3,7.19-1.44,7.48-1.72,7.19s0-1.44-1.15-1.44c-3.74.29-4.9-2.3-5.18-4.32,0-.57-.29-.86-.87-.57-1.43,1.15-5.17,3.16-7.48,0-.28-.29-1.43,0-2,.29s-.58-.58-.58-.87a7.71,7.71,0,0,1,4.61-6.61c.57-.29.57-.58.29-.87-1.16-.86-3.46-2.87-2.59-4.89,0-.28-1.73-1.15-1.44-1.44,4.6-3.16,10.07,2,10.93,2.59s4.89.87,15.25-5.17c6.61-3.74,10.07-6.62,11.79-8.92.29-.29.58-.87,1.44-.87,4,0,8.34-.86,11.51-3.45a1,1,0,0,1,1.44,0c6,4,8.92-4.89,10.07-9.2.28-.87.28-1.44,1.15-1.73,21.86,1.15,63,.86,63,.86s5.47.29,5.18-2.87c-.29-5.47-23-5.18-39.7-2.88-6,.86-15,1.44-20.14-.58a8.72,8.72,0,0,1-4.89-4,6.24,6.24,0,0,1-.58-4.89,15.64,15.64,0,0,1,1.44-3.17c4.32-6.62,14.39-7.19,17.26-7.19a1.47,1.47,0,0,0,1.15-.58c.29-1.44,1.44-5.18,5.76-5.18a10.09,10.09,0,0,0,3.16-.86c.58-.29.87,0,.58.29a2.51,2.51,0,0,1-.87,1.73c-2.87,2.58-2.58,3.74-2,4a.4.4,0,0,0,.58,0c8.91-7.76,14.09-2.59,15.53-.86.29.29.29.86-.29.86-6,1.44-8.34,6.62-20.71,5.76-1.44,0-11.51-.58-14.67,4-1.73,2.59-.58,5.18,4.89,6.33,4,.87,13.81-.57,18.41-.86,4.32-.29,23.88-2.88,34,0,4.31,1.15,10.64,4.6,9.2,11.22-.86,4-4.89,5.75-4.89,5.75s-11.22,7.77,8.92,8.06c6.33,0,0,5.18-.29,6.62,0,1.15,1.15,2,2,2.59ZM265,395a4.57,4.57,0,0,0-2.3.87c-1.73,1.15-8.92,4.31-11.22.57,0,0,5.18-.28,8.34-3.16,0,0,3.45-1.15,5.76.57-.29.58,0,1.15-.58,1.15Zm-47.75-40C149,355,81.13,373.13,81.13,373.13v90.62c0,81.7,58.4,166.57,135.79,181.24C297.18,629.17,353,545.45,353,463.75V373.13S296.32,355,217.21,355ZM332.85,496.84c0,66.45-50.63,126.86-115.64,126.86-65.31,0-115.94-60.41-115.94-126.86V382.34l1.72-.58s58.69-18.12,113.93-18.12,113.92,18.12,113.92,18.12l1.73.58v114.5Z"/></svg>