<?xml version="1.0" encoding="utf-8"?>
<!-- Generator: Adobe Illustrator 27.9.0, SVG Export Plug-In . SVG Version: 6.00 Build 0)  -->
<svg version="1.1" id="Layer_1" xmlns="http://www.w3.org/2000/svg" xmlns:xlink="http://www.w3.org/1999/xlink" x="0px" y="0px"
	 viewBox="0 0 456.95 473.23" style="enable-background:new 0 0 456.95 473.23;" xml:space="preserve">
<style type="text/css">
	.st0{fill:none;}
	.st1{fill:#1C75BC;}
	.st2{font-family:'Oswald-Bold';}
	.st3{font-size:87px;}
	.st4{letter-spacing:-3;}
	.st5{fill:none;stroke:#000000;stroke-width:3;stroke-miterlimit:10;}
	.st6{stroke:#000000;stroke-miterlimit:10;}
	.st7{fill:none;stroke:#1C75BC;stroke-width:9;stroke-miterlimit:10;}
	.st8{fill:none;stroke:#000000;stroke-width:4;stroke-miterlimit:10;}
	.st9{fill:none;stroke:#000000;stroke-width:7;stroke-miterlimit:10;}
	.st10{fill:none;stroke:#000000;stroke-width:1.5;stroke-miterlimit:10;}
	.st11{fill:none;stroke:#000000;stroke-width:3.5;stroke-miterlimit:10;}
	.st12{fill:none;stroke:#000000;stroke-width:2;stroke-miterlimit:10;}
	.st13{fill:none;stroke:#000000;stroke-miterlimit:10;}
</style>
<g>
	<rect x="3.24" y="366.85" class="st0" width="452.39" height="82.86"/>
	<text transform="matrix(1 0 0 1 4.0735 443.3199)"><tspan x="0" y="0" class="st1 st2 st3">RIDEAU</tspan><tspan x="259.56" y="0" class="st1 st2 st3 st4">X</tspan><tspan x="301.83" y="0" class="st1 st2 st3"> </tspan><tspan x="319.24" y="0" class="st2 st3">LAB</tspan></text>
	<g>
		<path class="st5" d="M280.94,289.41"/>
		<path class="st5" d="M303.05,26.41"/>
		<circle class="st6" cx="403.22" cy="212.23" r="4.85"/>
		<circle class="st6" cx="417.88" cy="212.35" r="3.5"/>
		<circle class="st6" cx="448.15" cy="161.59" r="3.5"/>
		<circle class="st6" cx="410.96" cy="314.99" r="3.5"/>
		<circle class="st6" cx="412.36" cy="251.06" r="3.5"/>
		<circle class="st6" cx="428.47" cy="209.6" r="2.5"/>
		<circle class="st6" cx="263.46" cy="347.12" r="4.85"/>
		<circle class="st6" cx="437.68" cy="138.66" r="4.85"/>
		<circle class="st6" cx="438.81" cy="153.55" r="3.5"/>
		<circle class="st6" cx="438.81" cy="187.51" r="8.09"/>
		<circle class="st6" cx="415.38" cy="288.73" r="8.09"/>
		<path class="st6" d="M71.41,181.88c2.88-0.27,5.17,2.55,5.85,4.85c0.96,3.25-0.79,7.16-4.48,9.41c-4.08-1.5-6.56-5.04-6.23-8.41
			C66.79,185.34,68.53,182.14,71.41,181.88z"/>
		<path class="st6" d="M157.48,234.45c1.03,2.7-1.07,5.67-3.1,6.94c-2.87,1.8-7.11,1.17-10.27-1.78c0.34-4.34,3.09-7.68,6.43-8.26
			C152.91,230.93,156.45,231.75,157.48,234.45z"/>
		<path class="st6" d="M189.48,256.57c1.61,2.4,0.23,5.76-1.47,7.46c-2.39,2.39-6.67,2.73-10.4,0.57c-0.64-4.3,1.29-8.17,4.41-9.49
			C184.24,254.16,187.87,254.17,189.48,256.57z"/>
		<path class="st6" d="M122.85,125.39c1.89,2.75,0.33,6.65-1.61,8.62c-2.73,2.79-7.67,3.22-12,0.77c-0.78-4.96,1.4-9.44,4.99-11
			C116.77,122.68,120.96,122.64,122.85,125.39z"/>
		<path class="st6" d="M166.41,108.7c2.34,2.38,1.48,6.49-0.08,8.77c-2.21,3.22-6.99,4.51-11.68,2.85
			c-1.64-4.75-0.27-9.54,2.99-11.7C159.96,107.09,164.08,106.32,166.41,108.7z"/>
		<path class="st6" d="M145.02,172.19c1.18,3.12-1.25,6.54-3.6,8c-3.31,2.06-8.21,1.33-11.84-2.08c0.41-5,3.58-8.85,7.44-9.51
			C139.75,168.12,143.84,169.07,145.02,172.19z"/>
		<path class="st6" d="M125.55,249.2c1.96-2.7,6.15-2.54,8.66-1.38c3.54,1.64,5.62,6.13,4.76,11.04c-4.41,2.4-9.36,1.86-12.04-1
			C125.04,255.83,123.59,251.9,125.55,249.2z"/>
		<path class="st6" d="M198.39,279.6c1.52-1.78,4.45-1.43,6.14-0.48c2.39,1.35,3.58,4.61,2.7,8c-3.22,1.43-6.66,0.77-8.36-1.38
			C197.65,284.21,196.87,281.38,198.39,279.6z"/>
		<path class="st6" d="M155.76,272.74c1.59-1.75,4.53-1.31,6.2-0.29c2.37,1.43,3.47,4.76,2.48,8.15c-3.29,1.35-6.74,0.57-8.39-1.65
			C154.88,277.37,154.18,274.49,155.76,272.74z"/>
		<path class="st6" d="M61.76,104.21c2.43-0.89,5.07,1.03,6.18,2.86c1.58,2.59,0.96,6.39-1.72,9.18c-3.88-0.36-6.84-2.86-7.33-5.86
			C58.55,108.27,59.33,105.1,61.76,104.21z"/>
		<path class="st6" d="M108.85,190.81c-3.21-1.54-3.84-5.98-3.1-8.84c1.05-4.04,5.38-7.07,10.7-7.1c3.37,4.18,3.74,9.49,1.24,12.84
			C115.92,190.09,112.06,192.35,108.85,190.81z"/>
		<path class="st6" d="M139.74,146.35c-1.86-3.54,0.54-7.95,3.12-10.03c3.64-2.93,9.57-2.76,14.37,0.77
			c0.23,6.01-2.99,11.03-7.47,12.38C146.58,150.42,141.59,149.88,139.74,146.35z"/>
		<path class="st6" d="M103.98,104.16c-2.51-1.37-2.83-4.95-2.11-7.21c1.01-3.19,4.61-5.44,8.87-5.24
			c2.52,3.49,2.59,7.76,0.45,10.34C109.68,103.88,106.49,105.53,103.98,104.16z"/>
		<path class="st6" d="M91.76,217.97c-2.72,0-4.61-2.84-5.05-5.05c-0.61-3.12,1.36-6.63,5-8.41c3.69,1.76,5.7,5.28,5.09,8.41
			C96.38,215.14,94.48,217.97,91.76,217.97z"/>
		<path class="st6" d="M50.81,163.52c-1.95,0-3.31-2.04-3.62-3.62c-0.44-2.24,0.98-4.76,3.59-6.04c2.65,1.26,4.09,3.79,3.65,6.04
			C54.12,161.48,52.76,163.52,50.81,163.52z"/>
		<path class="st6" d="M142.53,97.8c-1.94-0.2-3.08-2.37-3.23-3.98c-0.2-2.27,1.47-4.63,4.2-5.63c2.5,1.53,3.67,4.2,3.01,6.39
			C146.04,96.13,144.47,98.01,142.53,97.8z"/>
		<path class="st6" d="M93.67,135.63c-1.46,2.29-4.87,2.37-6.97,1.56c-2.96-1.15-4.87-4.7-4.42-8.73c3.46-2.17,7.51-1.98,9.83,0.21
			C93.75,130.22,95.12,133.34,93.67,135.63z"/>
		<path class="st6" d="M107.61,260.07c-2.12,0.71-4.34-1-5.26-2.61c-1.3-2.27-0.68-5.52,1.69-7.86c3.34,0.4,5.83,2.62,6.17,5.22
			C110.47,256.65,109.73,259.36,107.61,260.07z"/>
		<path class="st6" d="M44.99,193.83c1.35-1.56,3.93-1.24,5.41-0.39c2.1,1.2,3.13,4.08,2.34,7.06c-2.85,1.25-5.87,0.65-7.37-1.26
			C44.32,197.89,43.64,195.39,44.99,193.83z"/>
		<path class="st6" d="M29.83,215.8c0.96-1.11,2.79-0.88,3.85-0.28c1.49,0.85,2.23,2.91,1.67,5.03c-2.03,0.89-4.18,0.46-5.24-0.9
			C29.35,218.69,28.87,216.91,29.83,215.8z"/>
		<path class="st6" d="M11.46,206.91c-1.01-1.06-0.61-2.87,0.1-3.86c0.99-1.4,3.11-1.94,5.16-1.17c0.69,2.1,0.05,4.2-1.4,5.13
			C14.3,207.66,12.48,207.97,11.46,206.91z"/>
		<path class="st6" d="M35.17,205.94c-1.06,1.4-3.27,1.27-4.57,0.63c-1.85-0.9-2.88-3.29-2.37-5.87c2.35-1.21,4.95-0.87,6.32,0.67
			C35.52,202.45,36.24,204.54,35.17,205.94z"/>
		<path class="st6" d="M78.9,255.28c-1.27-0.76-1.36-2.61-0.95-3.76c0.58-1.62,2.48-2.71,4.67-2.53c1.23,1.85,1.19,4.05,0.03,5.34
			C81.84,255.24,80.17,256.03,78.9,255.28z"/>
		<path class="st6" d="M144.55,280.32c-1.28,0.74-2.94-0.08-3.74-1c-1.14-1.3-1.16-3.49,0.07-5.31c2.21-0.18,4.11,0.93,4.68,2.57
			C145.95,277.73,145.82,279.58,144.55,280.32z"/>
		<path class="st6" d="M172.79,287.09c-1.46,0.22-2.71-1.14-3.12-2.29c-0.59-1.62,0.19-3.67,2-4.92c2.12,0.64,3.49,2.37,3.42,4.1
			C175.03,285.19,174.24,286.86,172.79,287.09z"/>
		<path class="st6" d="M31.74,118.93c1.71-0.41,3.33,1.09,3.94,2.41c0.86,1.87,0.15,4.38-1.87,6.04c-2.59-0.55-4.38-2.46-4.47-4.52
			C29.26,121.41,30.03,119.34,31.74,118.93z"/>
		<path class="st6" d="M13.72,177.67c1.71-0.41,3.33,1.09,3.94,2.41c0.86,1.87,0.15,4.38-1.87,6.04c-2.59-0.55-4.38-2.46-4.47-4.52
			C11.24,180.15,12.01,178.08,13.72,177.67z"/>
		<path class="st6" d="M52.39,245.5c-0.91,1.2-2.79,1.08-3.91,0.53c-1.58-0.77-2.47-2.82-2.03-5.02c2.01-1.04,4.24-0.74,5.41,0.57
			C52.69,242.52,53.3,244.31,52.39,245.5z"/>
		<path class="st6" d="M61.69,236.69c1.06-1.4,3.27-1.27,4.57-0.63c1.85,0.9,2.88,3.29,2.37,5.87c-2.35,1.21-4.95,0.87-6.32-0.67
			C61.35,240.17,60.63,238.08,61.69,236.69z"/>
		<path class="st6" d="M25.98,158.91c1.59,0.74,1.94,2.92,1.59,4.33c-0.49,2-2.6,3.52-5.22,3.57c-1.69-2.03-1.91-4.65-0.7-6.32
			C22.5,159.32,24.39,158.17,25.98,158.91z"/>
		<circle class="st6" cx="378.19" cy="204.62" r="8.09"/>
		<circle class="st6" cx="301.78" cy="162.63" r="7"/>
		<circle class="st6" cx="320.9" cy="159.53" r="5"/>
		<circle class="st6" cx="391.12" cy="144.89" r="5"/>
		<circle class="st6" cx="397.32" cy="241.65" r="4.85"/>
		<circle class="st6" cx="380" cy="323.42" r="5.5"/>
		<circle class="st6" cx="372.2" cy="228.67" r="4.85"/>
		<circle class="st6" cx="347.84" cy="323.72" r="8.09"/>
		<circle class="st6" cx="346.9" cy="220.96" r="8.09"/>
		<circle class="st6" cx="322.02" cy="319.48" r="8.09"/>
		<circle class="st6" cx="234.1" cy="323.42" r="8.09"/>
		<circle class="st6" cx="288.13" cy="302.38" r="8.09"/>
		<circle class="st6" cx="290.95" cy="352.76" r="8.09"/>
		<circle class="st7" cx="234.1" cy="189.56" r="38"/>
		<g>
			<path d="M207.17,142.36c17.15-14.96,45.39-13.08,61.91,2.08c5.58,4.99,9.95,11.28,12.22,18.18
				c-9.22-10.58-20.45-18.48-33.79-22.11C234.18,136.84,220.48,137.93,207.17,142.36L207.17,142.36z"/>
		</g>
		<g>
			<path d="M207.18,236.76c-21.61-7.16-34.36-32.41-29.71-54.36c1.46-7.34,4.65-14.3,9.44-19.77c-4.42,13.32-5.51,27.01-1.84,40.34
				C188.68,216.32,196.59,227.55,207.18,236.76L207.18,236.76z"/>
		</g>
		<g>
			<path d="M288.44,189.56c4.49,22.31-11.13,45.9-32.49,52.74c-7.1,2.37-14.72,3.05-21.85,1.6c13.75-2.76,26.19-8.6,35.95-18.39
				C279.86,215.75,285.7,203.31,288.44,189.56L288.44,189.56z"/>
		</g>
		<g>
			<path d="M198.08,9.51c13.42-0.99,28.77,2.1,34.12,16.15c3.7,9.55,0.45,20,2.76,29.74c1.78,9.52,6.49,18.08,13.57,24.72
				c4.91,4.71,10.06,10.41,11.98,17.31c4.13,13.95-0.38,28.48-6.38,40.98c0,0-7.11-3.68-7.11-3.68c5.87-10.8,10.65-23.49,7.71-35.69
				c-1.47-6.21-5.5-10.77-9.85-15.49c-4.66-4.97-8.72-11.01-10.93-17.54c-2.23-6.5-3.26-13.43-2.94-20.26
				c0.19-6.56,1.5-13.13-0.69-19.4C225.92,12.72,210.96,9.21,198.08,9.51L198.08,9.51z"/>
		</g>
		<g>
			<path d="M339.41,33.13c-38.96,7.63-56.5,38.68-71.31,72.23c-4.78,10.81-9.42,21.85-13.85,32.79c0,0-7.35-3.16-7.35-3.16
				c2.57-5.43,5.14-10.85,7.78-16.18C273.38,81.03,292.81,39.51,339.41,33.13L339.41,33.13z"/>
		</g>
		<g>
			<path d="M435.92,126.07c-2.2-5.74-5.74-10.99-10.47-14.86c-4.75-3.84-10.58-6.2-16.6-6.93c-6.01-0.75-12.19-0.01-17.83,2.07
				c-5.66,2.06-10.57,5.76-14.35,10.4c-1.9,2.32-3.56,4.84-5.1,7.46c-1.55,2.62-2.95,5.33-4.57,8.04c-0.82,1.35-1.7,2.7-2.83,3.98
				c-0.59,0.62-1.21,1.25-2,1.76c-0.76,0.53-1.7,0.94-2.68,1.12c-0.99,0.2-1.99,0.13-2.95-0.1c-0.97-0.24-1.86-0.71-2.62-1.26
				c-1.51-1.13-2.52-2.49-3.45-3.79c-1.82-2.61-3.36-5.15-5.35-7.15c-1.95-2.02-4.32-3.41-6.97-4.02c-2.64-0.62-5.45-0.48-8.19,0.19
				c-2.75,0.67-5.42,1.85-7.98,3.27l-2.13-3.97c2.86-1.47,5.91-2.72,9.17-3.42c3.25-0.69,6.76-0.79,10.1,0.11
				c3.33,0.86,6.41,2.84,8.65,5.32c2.28,2.46,3.85,5.29,5.48,7.76c0.82,1.22,1.66,2.37,2.62,3.11c0.92,0.74,2.02,1.05,3.1,0.89
				c1.05-0.12,2.09-0.86,3.04-1.84c0.94-1,1.8-2.21,2.61-3.46c1.62-2.52,3.13-5.23,4.8-7.86c1.66-2.64,3.47-5.21,5.55-7.6
				c2.09-2.36,4.42-4.55,7.05-6.33c2.61-1.79,5.48-3.21,8.46-4.21c5.97-2,12.38-2.56,18.55-1.6c6.18,0.94,12.09,3.56,16.81,7.61
				C430.5,114.87,433.9,120.27,435.92,126.07z"/>
		</g>
		<g>
			<path d="M171.1,11.35c-3.64,2.73-22.82,16.4-13.04,19.96c3.95,0.93,8.13,0.29,12.19,0.18c2.76-0.14,5.54-0.25,8.33-0.23
				c10.14-0.02,20.69,2.19,29.16,8.08c5.25,4.14,9.73,9.13,14.44,13.76c7.76,7.89,15.45,15.8,23.15,23.74l-3.44,3.21
				c-7.4-8.18-14.82-16.38-22.27-24.52c-4.46-4.72-8.65-9.69-13.52-13.88c-10.2-7.67-23.37-9.07-35.81-8.68
				c-2.76,0.03-5.52,0.14-8.33,0c-1.92-0.12-4.03-0.31-5.75-1.37C148.87,25.85,166.86,14.41,171.1,11.35L171.1,11.35z"/>
		</g>
		<g>
			<path d="M281.24,16.69c-7.97-0.12-16.37,0.8-23.42,4.71c-6.23,3.55-7.58,8.53-3.21,14.37c6.03,7.92,15.1,13.2,24.81,15.24
				c3,0.76,6.31,1.13,9.06,2.95c5.38,3.97,1.57,11.32-1.71,15.33c0,0-2.34-1.87-2.34-1.87c2.4-3,6.25-8.24,2.56-11.41
				c-2.34-1.59-5.31-2-8.11-2.81c-8.01-1.91-15.54-6.07-21.36-11.93C238.48,22.35,265.43,15.45,281.24,16.69L281.24,16.69z"/>
		</g>
		<g>
			<path d="M231.82,8.36c6.14-1.45,12.91-1.74,18.81,0.79c2.91,1.25,5.87,3.59,6.24,6.97c0.31,3.34-1.52,6.39-3.48,8.91
				c0,0-0.62-0.5-0.62-0.5c1-1.21,1.89-2.5,2.55-3.9c3.09-5.96-1.58-10.3-7.05-11.98C242.96,7,237.23,7.18,231.82,8.36L231.82,8.36z
				"/>
		</g>
		<g>
			<path d="M144.94,16.23c-9.33,1.07-15.85,11.11-11.63,19.8c1.22,2.63,3.25,4.85,5.72,6.3l-1.07,1.69
				C125.7,35.71,130.19,17.59,144.94,16.23L144.94,16.23z"/>
		</g>
		<g>
			<path d="M193.83,44.7c8.07,7.34,23.45,23.22,7.27,30.64c-3.89,2.07-8.72,2.8-11.41,6.09c-2.94,5.29,7.56,12.26,11.34,14.98
				c0,0-2.95,4.04-2.95,4.04c-5.42-4.46-16.54-13.16-11.16-21.05c4.91-6.04,16.27-4.19,19.25-11.65
				C208.21,59.9,198.75,50.16,193.83,44.7L193.83,44.7z"/>
		</g>
		<g>
			<path d="M364.78,54.79c3.15,2.17,5.9,5.16,7.22,8.89c0.6,1.87,0.93,3.83,0.88,5.81c-0.08,1.97-0.44,3.93-1.03,5.82
				c-1.27,3.74-3.34,7.2-5.99,10.13c-2.63,2.95-5.74,5.47-9.14,7.51l-1.22-2.18c3.3-1.74,6.36-3.95,8.99-6.61
				c2.65-2.63,4.78-5.8,6.18-9.27c0.64-1.75,1.09-3.58,1.27-5.45c0.14-1.87-0.06-3.75-0.54-5.57
				C370.34,60.24,367.81,57.12,364.78,54.79z"/>
		</g>
		<g>
			<path d="M300.89,20.2c16.37,3.21,16.09,21.42,3.46,29.45c0,0-1.03-1.71-1.03-1.71c2.62-1.51,4.95-3.6,6.6-6.18
				C315.78,32.54,311.37,22.72,300.89,20.2L300.89,20.2z"/>
		</g>
		<g>
			<path d="M70.8,60.8c-2.01,3.71-12.1,19.84-7.49,22.62c2.52,0.82,5.46-0.59,7.89-1.45c5.22-2.14,10.28-4.75,15.4-7.21
				c12.82-6.23,26.01-12.01,39.96-15.28c15.03-4.14,30,0.89,40.03,12.74c0,0-3.05,2.58-3.05,2.58c-3.45-4.21-7.66-7.81-12.5-10.22
				c-10.33-5.43-21.35-3.49-32.1-0.45c-10.9,3.01-21.39,7.34-31.71,11.99c-6.52,2.79-12.88,6.23-19.81,8.05
				C53.36,87.28,68.19,65.29,70.8,60.8L70.8,60.8z"/>
		</g>
		<g>
			<path d="M392.25,70.66c-8.65-10.71-25.09-30.6-40.56-24.56c-9.31,4.25-14.14,14.11-18.77,22.79c-1.53,3.02-3,6.09-4.51,9.15
				c-2.41,4.61-4.52,9.57-8.45,13.27c-3.75,3.46-8.2,1.86-10.35-2.42c-2.39-4.29-3.72-9.68-7.06-13.02
				c-7.6-7.14-18.18,2.04-24.14,7.49c0,0-2.72-2.93-2.72-2.93c7.29-6.68,20.22-15.9,29.18-6.82c3.86,4.15,4.85,9.26,7.24,13.89
				c4.92,9.45,11.85-6.36,14.28-10.48c6.12-11.12,12.42-26.8,24.83-32.08C367.53,39.03,383.5,59.29,392.25,70.66L392.25,70.66z"/>
		</g>
		<g>
			<path d="M82.07,51.33c19.42-12.14,45.65-19.68,65.34-3.96c10.78,8.97,15.56,22.86,25.48,32.52
				c12.99,13.08,30.42,18.54,48.45,19.91c6.96,0.78,14.43,1.03,21.25,3.77c13.81,5.43,15.45,21.71,11.81,34.09
				c0,0-7.69-2.19-7.69-2.19c2.33-7.4,3.12-16.67-2.24-22.54c-5.74-5.75-15.8-5.82-23.83-7.16c-19.03-2.15-37.37-8.74-50.63-23.1
				c-6.38-6.88-10.8-15.26-15.68-23.06c-2.74-4.29-5.86-8.25-9.79-11.38c-2.96-2.39-6.62-4.36-10.2-5.67
				C116.78,36.04,97.69,42.59,82.07,51.33L82.07,51.33z"/>
		</g>
		<g>
			<path d="M415.09,97.91c-23.09-14.94-45.99-18.78-66.66,2.26c-5.87,5.7-10.89,12.23-16.74,18.35c-3.08,3.13-6.3,6.14-10.43,8.03
				c-7.23,3.38-14.56,0.91-19.37-5.1c-3.56-4.19-7.34-9.23-12.88-9.54c-5.36-0.68-10.7,2.57-15.32,5.45
				c-8.32,5.15-14.83,12.7-19.66,21.24c0,0-6.88-4.08-6.88-4.08c8.01-13,20.38-24.1,35.36-28.3c7.2-1.74,14.97,1.16,19.44,6.92
				c2.88,3.34,5.02,6.85,7.82,8.68c2.91,1.87,6.49,1.94,9.71,0.6c3.37-1.36,6.47-3.99,9.39-6.74c5.84-5.63,11.24-12.07,17.51-17.7
				C368.58,77.25,391.88,81.52,415.09,97.91L415.09,97.91z"/>
		</g>
		<g>
			<path d="M144.53,280.37c11.14-5.41,16.76-16.18,16.43-28.27c-0.19-11.45-4.8-22.48-11.11-31.89c-1.01-1.44-0.28-3.5,1.37-4.05
				c0,0,28.93-12.31,28.93-12.31l2.84,7.48l-29.81,10.01l1.37-4.05C166.44,237.37,170.38,269.76,144.53,280.37L144.53,280.37z"/>
		</g>
		<g>
			<path d="M11.3,149.21c17.07,14.59,39.04,19.12,59.22,8.08c3.49-1.82,6.77-4.17,9.86-6.61c1-0.92,3.51-3.01,4.4-4
				c1.26-1.34,2.92-2.91,4.04-4.35c0,0,2.52-3.05,2.52-3.05l2.29-3.23c6.03-8.68,10.03-18.63,12.46-28.89c0,0,2.92,0.69,2.92,0.69
				c-2.75,10.52-7.11,20.68-13.54,29.49c0,0-2.43,3.27-2.43,3.27c-1,1.08-3.03,3.59-4.03,4.6c-1.05,1.03-2.58,2.55-3.62,3.58
				c-0.49,0.42-3.33,2.82-3.89,3.28c-3.23,2.44-6.65,4.76-10.28,6.56C50.46,169.35,28.25,164.4,11.3,149.21L11.3,149.21z"/>
		</g>
		<g>
			<path d="M78.27,254.96c11.95,8.59,30.26,9.06,40.75-1.99c5.94-6.21,8.36-15.32,7.72-23.73c-0.09-0.99,0.51-1.88,1.39-2.22
				c0,0,51.94-23.14,51.94-23.14l3.03,7.4l-53.27,19.89l1.39-2.22c0.11,6.43-1.34,12.82-4.39,18.49
				C117.2,265.34,93.22,267.09,78.27,254.96L78.27,254.96z"/>
		</g>
		<g>
			<path d="M12.03,207.67c-14.42-15.16-7.58-34.01,14.2-33.01c10.14,0.1,19.62,6.03,24.51,14.86c0,0-1.31,0.74-1.31,0.74
				c-4.55-8.58-13.5-14.38-23.25-14.66C4.75,174.21-1.74,192.7,12.03,207.67L12.03,207.67z"/>
		</g>
		<g>
			<path d="M142.27,98.17c33.13,1.26,52.29,38.12,34.24,65.99c-5.78,8.75-15.12,14.84-25.24,17.41c0,0-1.54-6.83-1.54-6.83
				c8.76-1.68,17.08-6.38,22.5-13.62c5.54-7.28,8.04-16.77,7.25-25.92C178.24,115.73,161.62,99.83,142.27,98.17L142.27,98.17z"/>
		</g>
		<g>
			<path d="M29.69,217.5c5.92-16.82,19.41-32.77,37.78-36.15c12.19-2.55,24.67,1.36,35.81,5.93c5.66,2.23,11.23,4.96,16.41,8.27
				c10.42,6.56,19.55,15.12,27.08,24.9l-3.51-1.08c6.56-2.61,23.75-9.43,30.11-11.96c0,0,9.95-4.19,9.95-4.19l2.99,7.42
				c-5.08,1.94-15.32,5.62-20.46,7.36c0,0-20.52,7.15-20.52,7.15c-1.3,0.49-2.74,0.01-3.51-1.08
				c-10.07-14.37-23.85-26.24-40.03-33.27c-5.46-2.44-10.89-4.78-16.58-6.18C60.12,177.83,38.71,194.81,29.69,217.5L29.69,217.5z"/>
		</g>
		<g>
			<path d="M172.28,287.18c8.12-0.78,24.06-2.65,25.97-12.19c0.25-1.79-0.23-3.65-1.01-5.45c-1.63-3.62-4.08-7.08-6.34-10.64
				c-9.51-14.26-16.26-30.57-19.54-47.48c-0.34-1.7,0.6-3.34,2.12-3.99c0,0,6.27-3.18,6.27-3.18l3.35,7.26l-6.48,2.71l2.12-3.99
				c1.97,16.44,7.21,32.27,15.37,46.76c1.98,3.71,4.21,7.33,5.75,11.54c0.73,2.09,1.21,4.51,0.69,6.9
				C197.67,286.19,181.41,286.95,172.28,287.18L172.28,287.18z"/>
		</g>
		<g>
			<path d="M51.91,245.95c6.52-7.62,14.19-14.15,22.09-20.32c12.7-10.6,24.9-10.28,37.9-0.3c2.74,2.12,5.25,4.51,7.54,7.1
				l-2.42-0.59l66.24-29.89l3.1,7.38l-67.71,26.38c-0.86,0.38-1.86,0.12-2.42-0.59c-3.97-4.97-8.83-9.45-14.55-12.27
				c-9.77-4.92-18.35-2.11-26.75,4.05C66.77,232.61,58.81,238.69,51.91,245.95L51.91,245.95z"/>
		</g>
		<g>
			<path d="M29.88,119.66c20.76-13.85,49.98-28.27,74.44-15.65c0.94,0.39,3.36,1.95,4.3,2.48c0.79,0.44,1.97,1.35,2.72,1.89
				c18.56,13.9,27.88,36.26,37.21,56.71c6.95,15.63,13.53,32.2,17.94,48.73c0,0-4.72-2.53-4.72-2.53l19.59-7.28l2.65,7.55
				l-19.84,6.59c-1.89,0.7-4-0.3-4.64-2.23c-3.78-16.42-9.68-33.07-16.01-48.73c-8.34-20.12-16.64-42.36-34.03-56.36
				c-0.66-0.5-1.78-1.46-2.5-1.87c-0.81-0.49-3.11-2.09-3.98-2.48C79.65,93.46,50.62,106.92,29.88,119.66L29.88,119.66z"/>
		</g>
		<path class="st8" d="M415.38,288.73c-37.14-1.04-74.28-2.08-111.41-3.12c-1.04-8.5-2.08-17.01-3.12-25.51
			c-8.34-10.96-16.68-21.92-25.02-32.89"/>
		<path class="st8" d="M438.81,187.73c-13.36-10.07-26.73-20.13-40.09-30.2c-15.27,6.07-30.54,12.15-45.81,18.22
			c-22.03,21.96-44.06,43.93-66.09,65.89c-3.66-4.81-7.32-9.63-10.98-14.44"/>
		<path class="st9" d="M286.81,241.65c-3.66-4.81-7.32-9.63-10.98-14.44"/>
		<path class="st8" d="M290.95,352.76c-12.84-26.9-25.68-53.8-38.53-80.7c11.46-10.14,22.92-20.28,34.39-30.42"/>
		<path class="st5" d="M234.1,323.42c2.21-4.42,4.43-8.84,6.64-13.26c-0.77-4.85-1.54-9.7-2.31-14.54
			c6.73-3.66,13.45-7.33,20.18-10.99"/>
		<path class="st5" d="M322.02,319.48c-0.01-4.5-0.02-9-0.02-13.49c-3.91-2.11-7.82-4.22-11.73-6.33c-0.02-4.03-0.04-8.07-0.07-12.1
			"/>
		<path class="st5" d="M347.84,323.72c-0.03-5.12-0.06-10.23-0.09-15.35c-4.02-2.11-8.04-4.22-12.07-6.33
			c0.06-4.83,0.12-9.66,0.18-14.49"/>
		<path class="st10" d="M410.96,314.99c0-2.66,0.01-5.32,0.01-7.98c-2.72-1.11-5.44-2.23-8.16-3.34c0.02-4.56,0.03-9.12,0.05-13.68"
			/>
		<path class="st8" d="M378.19,204.62c-4.16-2.64-8.32-5.27-12.48-7.91c-2.87,0.12-5.74,0.24-8.6,0.36
			c-3.93-4.11-7.85-8.22-11.78-12.32"/>
		<path class="st11" d="M302.91,164.16c2.67,2.9,5.35,5.79,8.02,8.69c-0.58,4.38-1.15,8.75-1.73,13.13
			c5.34,5.1,10.68,10.21,16.02,15.31"/>
		<path class="st5" d="M322.26,161.46c1.92,2.09,3.85,4.17,5.77,6.26c-0.42,3.15-0.83,6.3-1.25,9.45
			c3.84,3.67,7.69,7.35,11.53,11.02"/>
		<path class="st12" d="M403.71,212.23c-0.38-6.34-0.77-12.68-1.15-19.01c-3.36-2.77-6.72-5.54-10.07-8.31
			c4.75-7.83,9.5-15.67,14.25-23.5"/>
		<path class="st10" d="M417.44,212.35c-0.27-6.5-0.54-13-0.81-19.49c-2.89-2.79-5.79-5.58-8.68-8.37c2.75-4.54,5.5-9.07,8.25-13.61
			"/>
		<path class="st13" d="M428.47,209.6c-0.19-5.44-0.39-10.88-0.58-16.32c-2.24-1.94-4.48-3.87-6.72-5.81
			c2.14-3.53,4.28-7.07,6.43-10.6"/>
		<path class="st12" d="M263.46,347.12c1.18-4.42,2.36-8.84,3.54-13.26c-1.4-2.98-2.8-5.95-4.2-8.93c3.45-1.85,6.9-3.71,10.35-5.56"
			/>
		<circle class="st6" cx="230.04" cy="261.88" r="4.85"/>
		<path class="st12" d="M230.04,261.88c4.56,0.34,9.12,0.67,13.68,1.01c2.66-1.93,5.32-3.86,7.99-5.79c2.47,3.04,4.93,6.09,7.4,9.13
			"/>
		<path class="st12" d="M380,323.42c0-4.05,0.01-8.1,0.01-12.15c4.01-1.04,8.02-2.08,12.02-3.12c-0.02-6.97-0.04-13.94-0.05-20.91"
			/>
		<path class="st5" d="M347.1,220.25c0.06,7.07,0.11,14.14,0.17,21.22c-7.17,4.74-14.34,9.48-21.5,14.22
			c-0.05,10.54-0.1,21.07-0.14,31.61"/>
		<path class="st12" d="M372.2,228.58c-0.02,4.85-0.04,9.71-0.06,14.56c-6.5,5.25-13,10.49-19.5,15.74
			c-0.18,9.43-0.36,18.86-0.53,28.29"/>
		<path class="st12" d="M397.32,242.35c-0.05,6.1-0.09,12.19-0.14,18.29c-4.97,1.99-9.93,3.99-14.9,5.98
			c-0.11,6.85-0.22,13.71-0.34,20.56"/>
		<path class="st10" d="M412.36,251.06c0.01,4.45,0.02,8.89,0.03,13.34c-4.02,2.44-8.03,4.88-12.05,7.32
			c-0.04,4.92-0.08,9.84-0.12,14.76"/>
		<path class="st12" d="M437.68,138.66c-3.37,2.65-6.74,5.3-10.12,7.95c-3.58-1.65-7.16-3.3-10.74-4.96
			c-5.14,5.14-10.27,10.27-15.41,15.41"/>
		<path class="st12" d="M438.81,153.67c-2.54,1.94-5.08,3.88-7.62,5.82c-2.72-1.23-5.44-2.47-8.16-3.7
			c-3.87,3.77-7.73,7.53-11.6,11.3"/>
		<path class="st10" d="M447.92,161.59c-1.74,2.16-3.48,4.32-5.23,6.48c-3.7-0.48-7.39-0.96-11.09-1.44
			c-2.55,2.63-5.1,5.27-7.66,7.9"/>
		<path class="st5" d="M288.13,302.38c-3.62-5.23-7.24-10.47-10.86-15.7c1.69-3.95,3.39-7.9,5.08-11.85
			c-4.21-5.49-8.43-10.98-12.64-16.47"/>
		<path class="st5" d="M391.12,144.7c-6.17,2.51-12.33,5.01-18.5,7.52c-1.76,2.9-3.52,5.81-5.28,8.71c0.48,2.5,0.96,5,1.44,7.51"/>
	</g>
</g>
</svg>
